<?xml version="1.0" encoding="utf-8"?>
<!-- Generator: Adobe Illustrator 26.4.1, SVG Export Plug-In . SVG Version: 6.00 Build 0)  -->
<svg version="1.1" id="Layer_1" xmlns="http://www.w3.org/2000/svg" xmlns:xlink="http://www.w3.org/1999/xlink" x="0px" y="0px"
	 viewBox="0 0 595.3 533.7" style="enable-background:new 0 0 595.3 533.7;" xml:space="preserve">
<style type="text/css">
	.st0{fill:#FFFFFF;}
	.st1{fill:#1B3668;}
	.st2{fill:#F4F6F6;}
	.st3{opacity:0.6;}
	.st4{fill:url(#SVGID_1_);}
	.st5{fill:url(#SVGID_00000052788827387806999840000017372611845815031191_);}
	.st6{fill:url(#SVGID_00000092450348846300397560000002978564962617738143_);}
	.st7{fill:url(#SVGID_00000157293439491238214600000005347783805177966221_);}
	.st8{fill:#B3D1B5;stroke:#B3D1B5;stroke-miterlimit:10;}
	.st9{fill:#E04726;}
	.st10{font-family:'MyriadPro-Bold';}
	.st11{font-size:39.8435px;}
</style>
<rect x="59.4" y="208.2" class="st0" width="476.9" height="113.7"/>
<polygon class="st0" points="110,321.9 139.9,369 172.8,419.7 203.6,450.9 270,499.5 299,515.8 332,493.5 397.5,439.6 427.8,407 
	450.5,374.4 475.7,330.5 475.7,321.9 "/>
<polygon class="st0" points="103.9,208.8 492.4,208.8 478.4,130.6 473.5,124.1 436.5,114 429.8,109.3 389.5,60.7 356,40.6 
	305.9,29.7 283.4,29.7 241.4,39.9 215.2,52.8 190.2,74.3 165.1,105.5 163.1,112.2 135.2,119.3 119,126.6 112.8,140.6 103.9,187.6 
	"/>
<g>
	<path class="st1" d="M540.7,201.6h-45.1c-1.5-23-5.4-46.6-11.5-70.8c-1.3-5.1-5-9.3-9.9-11.2c-6.6-2.5-19.6-7.2-38-12.1
		c-26-50-78.3-84.2-138.4-84.2c-60.4,0-112.9,34.5-138.8,84.9c-12.9,3.3-25.8,7.1-38.6,11.4c-5.2,1.7-9.2,6-10.6,11.4
		c-2.6,10-8.6,36-10.2,70.6H54.6v125.5h0.1l-0.1,0l69.3,21.3c29.9,71.4,86.2,127,168,165.9c2.2,1.1,4.6,1.6,7,1.6
		c2.5,0,5-0.6,7.3-1.7c15.1-7.5,68.1-36.3,114.1-90c20.3-23.7,36.6-48.8,48.8-75.1l71.5-22l-0.1,0h0.1V201.6z M119.8,133.6
		c0.5-1.9,1.9-3.4,3.8-4.1c14.5-4.8,29.1-9.1,43.8-12.7c23.3-48.5,72.9-82,130.2-82c57,0,106.4,33.2,129.9,81.3
		c21,5.3,35.7,10.5,42.8,13.3c1.8,0.7,3.1,2.2,3.5,4c6,23.4,9.7,46.1,11.1,68.2h-11.7c-1.4-20.3-4.7-41-10-62.4
		c-5.6-2.1-15.8-5.6-29.9-9.4c5.7,15.4,8.7,32.1,8.7,49.5c0,7.6-0.6,15-1.7,22.3H154.9c-1.1-7.3-1.7-14.7-1.7-22.3
		c0-17.2,3-33.6,8.5-48.9c-10.5,2.8-21,5.9-31.4,9.3c-2.7,10.9-7.3,33.1-8.7,62H110C111.6,168.3,117.3,143.3,119.8,133.6z
		 M412.4,417.3c-44.8,52.2-96.2,80.1-110.8,87.4c-0.8,0.4-1.7,0.6-2.6,0.6c-0.9,0-1.7-0.2-2.5-0.6
		C210.6,464,153.8,404.4,127.1,327.1h12.4c15.5,42.5,40.5,79.4,75.1,110.5v-42.7h34.7v69.7c9.8,6.6,20.1,12.9,31,18.8v-88.6H315V484
		c8.7-5.2,19.3-12.1,31-20.8v-68.4h34.7v39c7.7-7.4,15.4-15.4,22.9-24.1c22.2-25.8,39.1-53.4,50.9-82.6H467
		C454.8,359,436.6,389.2,412.4,417.3z M200.9,385.5l-10.7-7.8l-10.7,7.8l4.1-12.6l-10.7-7.8h13.2l4.1-12.6l4.1,12.6h13.2l-10.7,7.8
		L200.9,385.5z M254.6,385.5l-10.7-7.8l-10.7,7.8l4.1-12.6l-10.7-7.8h13.2l4.1-12.6l4.1,12.6h13.2l-10.7,7.8L254.6,385.5z
		 M308.3,385.5l-10.7-7.8l-10.7,7.8l4.1-12.6l-10.7-7.8h13.2l4.1-12.6l4.1,12.6H315l-10.7,7.8L308.3,385.5z M362.1,385.5l-10.7-7.8
		l-10.7,7.8l4.1-12.6l-10.7-7.8h13.2l4.1-12.6l4.1,12.6h13.2l-10.7,7.8L362.1,385.5z M415.8,385.5l-10.7-7.8l-10.7,7.8l4.1-12.6
		l-10.7-7.8H401l4.1-12.6l4.1,12.6h13.2l-10.7,7.8L415.8,385.5z M530.5,316.9H64.8V211.7h465.7V316.9z M164.8,201.6
		c-1.1-6.9-1.7-14.1-1.7-21.3c0-75.5,61.2-136.7,136.7-136.7s136.7,61.2,136.7,136.7c0,7.3-0.6,14.4-1.7,21.3"/>
	<rect x="73" y="220" class="st1" width="449.2" height="88.7"/>
</g>
<g>
	<g>
		<g>
			<path class="st2" d="M217.5,148.9c0,4.2-1,7.8-3.1,10.8s-4.8,5.2-8.2,6.7c-3.4,1.5-7,2.2-10.8,2.2c-2.2,0-4.3-0.2-6.1-0.6
				c-1.9-0.4-3.6-1-5.1-1.9c-1.5-0.9-3.1-2.1-4.7-3.6l9.5-9c1.2,1,2.2,1.8,3,2.2s2,0.6,3.5,0.6c2.3,0,4.2-0.6,5.6-1.9
				c1.4-1.3,2.1-3.2,2.1-5.8v-36.5h14.4L217.5,148.9L217.5,148.9z"/>
		</g>
		<g>
			<path class="st2" d="M248.1,148.5c0,2.9-0.6,5.7-1.7,8.2c-1.2,2.5-2.8,4.7-4.8,6.4c-2.1,1.8-4.5,3.2-7.2,4.1
				c-2.7,0.9-5.6,1.4-8.6,1.4c-4,0-7.7-0.8-11.1-2.5c-3.4-1.7-6.1-4-8.1-7.1c-2-3.1-3-6.6-3-10.5v-36.3H218v36c0,2.6,0.7,4.6,2.1,6
				c1.4,1.4,3.3,2.2,5.7,2.2c1.6,0,2.9-0.3,4.2-1c1.2-0.6,2.1-1.6,2.8-2.8c0.6-1.2,1-2.7,1-4.4v-36h14.4L248.1,148.5L248.1,148.5z"
				/>
		</g>
		<path class="st2" d="M270,112.2v12.2l-1.3-0.1c0,0-3.8-0.6-6.3-0.6c-2.3,0-4.1,0.5-5.3,1.6c-1.2,1-1.8,2.3-1.8,3.6
			c0,1,0.4,1.9,1.2,2.6c0.9,0.9,2.3,1.4,4,1.6l7.1,0.9c5.1,0.7,9,2.3,11.5,4.6c1.5,1.4,2.6,3.1,3.3,5.1c0.7,2,1,4.4,1,7.2
			c0,3.7-1,6.8-3,9.5c-2,2.7-4.8,4.7-8.2,6s-7.2,2.1-11.4,2.1c-4.9,0-9.1-0.5-12.7-1.6c-3.6-1.1-6.8-3-9.6-5.7l9.2-8.8
			c1.5,1.4,3.4,2.4,5.7,3c2.4,0.6,4.8,0.9,7.4,0.9c5.6,0,8.4-1.7,8.4-5c0-1.4-0.4-2.5-1.2-3.3c-0.8-0.8-2.1-1.3-3.9-1.5l-7.1-1
			c-5.2-0.7-9.1-2.3-11.8-4.9c-2.7-2.6-4-6.4-4-11.2c0-3.4,0.9-6.4,2.6-9.1c1.7-2.7,4.2-4.8,7.4-6.3c3.2-1.5,7-2.3,11.4-2.3
			C265.3,111.7,267.8,111.7,270,112.2"/>
		<g>
			<path class="st2" d="M313.2,124.4h-14.4v43.7h-14.4v-43.7H270v-12.2h43.3V124.4z"/>
		</g>
		<g>
			<g class="st3">
				
					<linearGradient id="SVGID_1_" gradientUnits="userSpaceOnUse" x1="-523.9181" y1="336.6752" x2="-515.7498" y2="327.4178" gradientTransform="matrix(-1 0 0 1 -152.2696 -209.9904)">
					<stop  offset="2.563849e-03" style="stop-color:#FFFFFF"/>
					<stop  offset="0.1011" style="stop-color:#F7FCFC"/>
					<stop  offset="0.2393" style="stop-color:#E5EDED"/>
					<stop  offset="0.401" style="stop-color:#C8DADA"/>
					<stop  offset="0.5805" style="stop-color:#9EBDBE"/>
					<stop  offset="0.7747" style="stop-color:#6A999A"/>
					<stop  offset="0.9783" style="stop-color:#2A6D6E"/>
					<stop  offset="1" style="stop-color:#24696A"/>
				</linearGradient>
				<circle class="st4" cx="368.4" cy="123" r="5.6"/>
				
					<linearGradient id="SVGID_00000174597746102556053300000000610830737650794379_" gradientUnits="userSpaceOnUse" x1="-513.2072" y1="328.0923" x2="-499.7798" y2="313.1157" gradientTransform="matrix(-1 0 0 1 -152.2696 -209.9904)">
					<stop  offset="2.563849e-03" style="stop-color:#FFFFFF"/>
					<stop  offset="0.1011" style="stop-color:#F7FCFC"/>
					<stop  offset="0.2393" style="stop-color:#E5EDED"/>
					<stop  offset="0.401" style="stop-color:#C8DADA"/>
					<stop  offset="0.5805" style="stop-color:#9EBDBE"/>
					<stop  offset="0.7747" style="stop-color:#6A999A"/>
					<stop  offset="0.9783" style="stop-color:#2A6D6E"/>
					<stop  offset="1" style="stop-color:#24696A"/>
				</linearGradient>
				<circle style="fill:url(#SVGID_00000174597746102556053300000000610830737650794379_);" cx="354.6" cy="111" r="9.8"/>
			</g>
			<g class="st3">
				
					<linearGradient id="SVGID_00000095305483657817234620000011853755621454406060_" gradientUnits="userSpaceOnUse" x1="340.4683" y1="496.4804" x2="348.6366" y2="487.223" gradientTransform="matrix(1 0 0 -1 -53.7087 639.0024)">
					<stop  offset="2.562971e-03" style="stop-color:#24696A"/>
					<stop  offset="0.1044" style="stop-color:#2A6C6D"/>
					<stop  offset="0.2473" style="stop-color:#3B7A7A"/>
					<stop  offset="0.4144" style="stop-color:#588E8E"/>
					<stop  offset="0.6" style="stop-color:#83A9A9"/>
					<stop  offset="0.8" style="stop-color:#B7CCCC"/>
					<stop  offset="1" style="stop-color:#F4F6F6"/>
				</linearGradient>
				<circle style="fill:url(#SVGID_00000095305483657817234620000011853755621454406060_);" cx="290" cy="146.2" r="5.6"/>
				
					<linearGradient id="SVGID_00000160159936459915815160000007377210662503468165_" gradientUnits="userSpaceOnUse" x1="351.1793" y1="487.8975" x2="364.6066" y2="472.9209" gradientTransform="matrix(1 0 0 -1 -53.7087 639.0024)">
					<stop  offset="2.562971e-03" style="stop-color:#24696A"/>
					<stop  offset="0.1044" style="stop-color:#2A6C6D"/>
					<stop  offset="0.2473" style="stop-color:#3B7A7A"/>
					<stop  offset="0.4144" style="stop-color:#588E8E"/>
					<stop  offset="0.6" style="stop-color:#83A9A9"/>
					<stop  offset="0.8" style="stop-color:#B7CCCC"/>
					<stop  offset="1" style="stop-color:#F4F6F6"/>
				</linearGradient>
				<circle style="fill:url(#SVGID_00000160159936459915815160000007377210662503468165_);" cx="303.8" cy="158.2" r="9.8"/>
			</g>
			<g>
				<path class="st8" d="M299.6,175.7c1.8-5.3,3.3-10.7,4.4-16.1c1.1-5.4,2.3-13.2,3.5-23.2c0.1-0.6,0.2-0.9,0.4-1.1
					c0.2-0.2,0.6-0.3,1.2-0.3c1.3,0,2.3,0.4,3,1.1c0.7,0.7,1,1.6,1,2.6c0,1.6-0.6,5.3-1.9,11.3c1.7-3.4,3.8-6.3,6.3-8.7
					c2.5-2.4,5.1-3.7,8.1-3.7c2.4,0,4.4,0.9,6,2.7c1.6,1.8,2.4,4.1,2.4,7c0,4.8-1.9,9.4-5.8,14c-3.8,4.6-8.4,6.9-13.8,6.9
					c-1.4,0-2.5-0.2-3.4-0.5c-0.9-0.3-1.4-0.7-1.4-1.1c0-0.3,0.7-0.4,2.1-0.4c4.3,0,8.2-1.9,11.7-5.8c3.5-3.9,5.2-8,5.2-12.3
					c0-1.9-0.4-3.4-1.2-4.6c-0.8-1.2-2-1.8-3.5-1.8c-2.6,0-5.2,1.5-7.8,4.4c-2.6,2.9-4.6,5.9-5.9,8.9c-4.9,20.6-8.2,31.8-10.2,33.7
					c-0.3,0.3-0.6,0.4-1,0.4c-0.6,0-1.2-0.5-1.8-1.4c-0.6-0.8-0.8-1.4-0.7-1.7c0-0.4,0.1-1.1,0.4-1.9c0.2-0.8,0.7-2.1,1.4-3.9
					C298.7,178.4,299.2,176.9,299.6,175.7z"/>
				<path class="st8" d="M332,159.9c0-3.8,1.1-8.8,3.2-15c2.2-6.3,4.6-12.2,7.5-17.8c2.8-5.6,5.7-10.5,8.6-14.6
					c2.9-4.1,5-6.2,6.4-6.2c0.8,0,1.4,0.7,1.9,2.1c0.5,1.4,0.8,2.7,0.8,4.1c0,4.1-2.3,10.5-6.8,18.9c-4.5,8.5-9.6,15-15.2,19.7
					c-0.7,3.2-1.1,6-1.1,8.4c0,4.3,1.2,6.4,3.6,6.4c2,0,4.1-1.3,6.3-3.9c2.1-2.6,4-5.7,5.7-9.4l1.2,0.7
					c-4.7,10.1-9.9,15.2-15.5,15.2h-0.1C334.2,168.4,332,165.6,332,159.9z M339.2,148.2c4.5-4.6,8.8-10.6,12.8-18.1
					c4-7.5,6-12.8,6-15.8c0-0.9-0.2-1.3-0.6-1.3c-0.8,0-2.3,1.8-4.6,5.3c-2.3,3.6-4.8,8.2-7.4,13.9
					C342.7,137.9,340.6,143.2,339.2,148.2z"/>
				<path class="st8" d="M347.3,162.9c0-3.3,1.1-6.9,3.4-10.9c2.3-4,5.2-7.4,8.9-10.3c3.6-2.9,7.2-4.3,10.6-4.3c2.2,0,4,0.6,5.4,1.8
					c1.4,1.2,2.2,2.7,2.2,4.5c0,2.4-1.4,3.6-4.1,3.6c0.3-1,0.4-2,0.4-2.9c0-3.1-1.4-4.6-4.1-4.6c-2.4,0-5,1.4-7.7,4.2
					c-2.7,2.8-4.9,6-6.7,9.7c-1.7,3.7-2.6,6.9-2.6,9.6c0,2.2,0.7,3.2,2.2,3.2c1,0,2.1-0.5,3.5-1.4s2.5-2,3.6-3.1
					c1.1-1.2,2.4-2.7,3.9-4.7c1.5-2,2.6-3.5,3.3-4.5l3-4.3c2.2,0.4,3.4,1.1,3.4,2.1c0,0.4-0.8,2.1-2.4,5s-2.4,5.1-2.4,6.5
					c0,0.9,0.2,1.8,0.7,2.5c0.5,0.7,1.2,1.1,2.2,1.1c1.6,0,3.6-1.1,6-3.4c2.4-2.3,1.9-1,4.2-5.2h1.4c-1.7,4.4-1.7,4.3-4.8,7.1
					c-3.1,2.8-6.2,4.2-9.2,4.2c-1.9,0-3.4-0.6-4.4-1.7c-1-1.1-1.5-2.5-1.5-4c0-0.7,0.1-1.5,0.2-2.4c-2.5,3.3-4.7,5.6-6.7,7.2
					c-2,1.5-3.9,2.3-5.8,2.3c-1.8,0-3.3-0.6-4.4-1.7C347.9,166.8,347.3,165.1,347.3,162.9z"/>
				<path class="st8" d="M380.8,187.9c-1-0.8-1.5-1.8-1.5-3.2c0-1.4,0.3-2.7,1-3.9c0.7-1.2,1.4-2.3,2.1-3.1c0.7-0.8,2-1.8,3.8-3
					c1.8-1.1,3.2-2,4.2-2.5l4.9-2.6c1.7-4.3,3.2-9.3,4.6-15.2c-4.3,7-8.4,10.5-12.1,10.5c-1.7,0-3.3-0.6-4.6-1.7
					c-1.3-1.1-2-2.8-2-4.9c0-3,0.9-6.8,2.7-11.3s3.3-6.7,4.5-6.7c0.5,0,1.2,0.2,2.2,0.6c1,0.4,1.5,0.8,1.5,1.3
					c-1.1,1.6-2.3,4.2-3.6,7.7c-1.3,3.6-1.9,6.4-1.9,8.5c0,2.2,1,3.3,3,3.3c1.5,0,3.3-1,5.3-3.1c2-2,3.9-4.6,5.8-7.5
					c0.3-0.9,0.6-2.2,0.8-3.8c0.6-2.8,2-4.2,4.2-4.2c0.5,0,1.1,0.1,1.7,0.2c0,1.5-0.6,4.6-1.9,9.2s-2.8,9.3-4.6,13.9
					c6.3-2.4,10.8-7.1,13.7-14.1l1.1,0.8c-2,6.5-7.3,11.6-15.7,15.5c-5.5,13.5-10.7,20.3-15.6,20.3
					C383,189.1,381.7,188.7,380.8,187.9z M381.8,184c0,0.6,0.2,1.1,0.6,1.7c0.4,0.6,0.9,0.8,1.6,0.8c0.6,0,1.4-0.4,2.4-1.3
					c1-0.9,2.2-2.5,3.7-4.9c1.5-2.4,2.9-5.2,4.3-8.6c-2.2,1.2-3.9,2.1-5,2.8c-1.1,0.7-2.4,1.6-3.8,2.6c-1.4,1.1-2.4,2.1-3,3.2
					C382.1,181.5,381.8,182.7,381.8,184z"/>
			</g>
		</g>
	</g>
</g>
<g>
	<path class="st9" d="M899.4,1464.3c-3-15.7-0.3-29.8,8-42.1c7.8-11.5,19.5-19.8,31.2-25.7c-19,3.1-36.7,10.2-52.1,20.4l-1.9,1.6
		c-0.2,0.2-16.7,15.1-4.3,57.8C886.2,1472.2,892.5,1468.3,899.4,1464.3z"/>
	<path class="st9" d="M864.3,1435.1c-11,11.2-20,24.3-26.6,38.8c1.6,0.6,3.1,1.3,4.5,2.2c6.2,3.8,11.1,10.1,14.5,18.8
		c4-3.7,8.4-7.4,13.2-11.1C863.1,1462.5,862.5,1446.6,864.3,1435.1z"/>
	<path class="st9" d="M836,1486.6c-0.9-0.6-1.8-1-2.7-1.3c-4.8,13.9-7.5,28.8-7.5,44.4c0,1.6,0,3.1,0.1,4.7
		c4.5-8.9,11.3-19.1,21.3-29.9C844.6,1495.7,840.9,1489.7,836,1486.6z"/>
	<path class="st9" d="M850.3,1519.2c-8.3,10-13.4,19.2-16.6,26.9c-0.8,1.9-1.5,3.8-2.1,5.8H855c-0.3-2-0.5-4-0.8-6
		C852.9,1536.6,851.8,1527.7,850.3,1519.2z"/>
	<path class="st9" d="M874.3,1495.9c-5.1,4.1-9.7,8.2-13.8,12.2c2.4,11.4,4,23.5,5.7,36.2c0.3,2.5,0.7,5.1,1,7.6h36.4
		c-6.8-10.8-13.3-22.2-19.4-34.1C880.3,1510,877,1502.7,874.3,1495.9z"/>
	<path class="st9" d="M1078.6,1464c-6.8-3.4-23.6-10.9-47.1-14.6c-27.6-4.4-70.2-4.1-117.7,20.8c7.4,16.9,27.3,23.7,55.9,33.3
		c27.4,9.3,63.5,21.5,103.1,48.3h21c1.2-7.3,1.8-14.7,1.8-22.3C1095.6,1505.8,1089.4,1483.4,1078.6,1464z"/>
	<path class="st9" d="M903.1,1476.2c-6.8,4-13.1,8-18.7,12c2.7,7.3,6.2,15.3,10.7,24c7,13.8,14.8,27.1,23,39.6h132
		c-32.1-19.1-61.3-29-84.3-36.8C935.5,1504.8,912.6,1497.1,903.1,1476.2z"/>
	<path class="st9" d="M917.5,1429c-5.8,8.5-8,18.3-6.8,29.1c49.5-25.2,94-25.3,123-20.7c12.9,2.1,23.9,5.1,32.6,8.2
		c-21.2-26.7-52.4-45.2-87.8-49.8C970.3,1397.4,933.3,1405.7,917.5,1429z"/>
</g>
<text transform="matrix(1 0 0 1 196.7974 282.8914)" class="st0 st10 st11">BLUE TEAM</text>
</svg>
