<?xml version="1.0" encoding="utf-8"?>
<!-- Generator: Adobe Illustrator 24.0.1, SVG Export Plug-In . SVG Version: 6.00 Build 0)  -->
<svg version="1.1" id="Layer_1" xmlns="http://www.w3.org/2000/svg" xmlns:xlink="http://www.w3.org/1999/xlink" x="0px" y="0px"
	 viewBox="0 0 595.3 533.7" style="enable-background:new 0 0 595.3 533.7;" xml:space="preserve">
<style type="text/css">
	.st0{fill:#9FF7AA;}
	.st1{fill:#E04726;}
	.st2{fill:#216869;stroke:#9FF7AA;stroke-miterlimit:10;}
	.st3{fill:#216869;stroke:#9FF7AA;stroke-width:3;stroke-miterlimit:10;}
	.st4{fill:none;}
</style>
<polygon class="st0" points="106,90 106,267.5 111.8,338.7 120.3,364.7 159,427 213.6,464 240.1,470 274.5,489.3 297.6,502.2 
	300.7,508.7 324,491.7 394.6,454.2 454.6,412.4 474.7,381.4 493,344.1 500.2,296.7 500.2,198.6 504.3,84.2 499.2,70.9 441.3,47.1 
	331.3,23.9 279.6,23.9 211.2,32.1 159.8,47.8 111.8,68.5 "/>
<g>
	<path class="st1" d="M899.4,1464.3c-3-15.7-0.3-29.8,8-42.1c7.8-11.5,19.5-19.8,31.2-25.7c-19,3.1-36.7,10.2-52.1,20.4l-1.9,1.6
		c-0.2,0.2-16.7,15.1-4.3,57.8C886.2,1472.2,892.5,1468.3,899.4,1464.3z"/>
	<path class="st1" d="M864.3,1435.1c-11,11.2-20,24.3-26.6,38.8c1.6,0.6,3.1,1.3,4.5,2.2c6.2,3.8,11.1,10.1,14.5,18.8
		c4-3.7,8.4-7.4,13.2-11.1C863.1,1462.5,862.5,1446.6,864.3,1435.1z"/>
	<path class="st1" d="M836,1486.6c-0.9-0.6-1.8-1-2.7-1.3c-4.8,13.9-7.5,28.8-7.5,44.4c0,1.6,0,3.1,0.1,4.7
		c4.5-8.9,11.3-19.1,21.3-29.9C844.6,1495.7,840.9,1489.7,836,1486.6z"/>
	<path class="st1" d="M850.3,1519.2c-8.3,10-13.4,19.2-16.6,26.9c-0.8,1.9-1.5,3.8-2.1,5.8H855c-0.3-2-0.5-4-0.8-6
		C852.9,1536.6,851.8,1527.7,850.3,1519.2z"/>
	<path class="st1" d="M874.3,1495.9c-5.1,4.1-9.7,8.2-13.8,12.2c2.4,11.4,4,23.5,5.7,36.2c0.3,2.5,0.7,5.1,1,7.6h36.4
		c-6.8-10.8-13.3-22.2-19.4-34.1C880.3,1510,877,1502.7,874.3,1495.9z"/>
	<path class="st1" d="M1078.6,1464c-6.8-3.4-23.6-10.9-47.1-14.6c-27.6-4.4-70.2-4.1-117.7,20.8c7.4,16.9,27.3,23.7,55.9,33.3
		c27.4,9.3,63.5,21.5,103.1,48.3h21c1.2-7.3,1.8-14.7,1.8-22.3C1095.6,1505.8,1089.4,1483.4,1078.6,1464z"/>
	<path class="st1" d="M903.1,1476.2c-6.8,4-13.1,8-18.7,12c2.7,7.3,6.2,15.3,10.7,24c7,13.8,14.8,27.1,23,39.6h132
		c-32.1-19.1-61.3-29-84.3-36.8C935.5,1504.8,912.6,1497.1,903.1,1476.2z"/>
	<path class="st1" d="M917.5,1429c-5.8,8.5-8,18.3-6.8,29.1c49.5-25.2,94-25.3,123-20.7c12.9,2.1,23.9,5.1,32.6,8.2
		c-21.2-26.7-52.4-45.2-87.8-49.8C970.3,1397.4,933.3,1405.7,917.5,1429z"/>
</g>
<g>
	<path class="st2" d="M479.6,95.9c0,0-59-46-177.2-46s-177.2,46-177.2,46v152.4c0,187.8,122.7,178.2,177.3,228.1
		c54.6-49.9,177-40.3,177-228.2L479.6,95.9z"/>
	<g>
		<path class="st3" d="M302.5,520l-6.6-6c-15.2-13.9-36.3-23.8-58.6-34.3c-64.6-30.4-145-68.3-145-230.7V72l3.8-2.9
			c2.8-2.2,70.9-54,206.3-54s203.4,51.8,206.3,54l3.8,2.9l-0.1,176.9c0,162.5-80.2,200.3-144.7,230.8
			c-22.3,10.5-43.3,20.4-58.5,34.3L302.5,520z M111.8,81.8V249c0,150.1,71.1,183.5,133.8,213.1c20.8,9.8,40.6,19.1,56.9,32
			c16.3-12.9,36-22.2,56.8-32c62.6-29.5,133.6-63,133.6-213.1L493,81.9c-15.6-10.3-79.6-47.3-190.5-47.3
			C191,34.5,127.4,71.5,111.8,81.8z"/>
	</g>
	<g>
		<polygon class="st4" points="125.2,182.5 125.2,240 252.1,256.6 		"/>
		<path class="st4" d="M125.2,246.6v1.7c0,17.8,1.1,33.9,3.2,48.4l121-22.8L125.2,246.6z"/>
		<path class="st4" d="M126.4,95c-0.8,0.6-1.3,0.9-1.3,0.9v81.2l134.3,63.8L126.4,95z"/>
		<path class="st4" d="M192.9,64.9C155.4,76,133.5,90,127.1,94.5L271,228.2L192.9,64.9z"/>
		<path class="st4" d="M258.5,52.2c-24.4,2.5-45.5,6.9-63.2,12.1l90.2,155.4L258.5,52.2z"/>
		<path class="st4" d="M177.6,401c11.5,10.9,24.2,19.3,37.1,26.6l55.1-107.4L177.6,401z"/>
		<path class="st4" d="M300.1,333.4l-32.7,120.3c13.2,6.6,25.2,13.7,35.1,22.7c3.3-3,6.9-5.8,10.6-8.5L300.1,333.4z"/>
		<path class="st4" d="M145.5,356.8c7.5,15.9,16.8,28.7,27.1,39.4l86-88.9L145.5,356.8z"/>
		<path class="st4" d="M129.4,303.4c3,18.1,7.6,33.6,13.3,47.1l108.9-59.3L129.4,303.4z"/>
		<path class="st4" d="M221,431.1c13.5,7.2,27.2,13.2,40,19.5l23-121.3L221,431.1z"/>
		<path class="st4" d="M411.6,413.9c11.7-8.5,22.6-18.7,32.2-31.6l-98.4-66.9L411.6,413.9z"/>
		<path class="st4" d="M448,376.4c7.9-11.7,14.7-25.5,19.9-42L355,301L448,376.4z"/>
		<path class="st4" d="M470,327.4c3.8-13.6,6.6-29,8.1-46.4l-118,3.3L470,327.4z"/>
		<path class="st4" d="M367.5,439.3c12.7-6.1,25.7-12.8,38-21.1l-73.3-92L367.5,439.3z"/>
		<path class="st4" d="M478.7,273.8c0.5-8.1,0.8-16.6,0.8-25.5v-24l-119.2,42.6L478.7,273.8z"/>
		<path class="st4" d="M319.1,464c12.5-7.9,26.9-14.4,41.8-21.5l-44.1-110.1L319.1,464z"/>
		<polygon class="st4" points="479.5,217.4 479.5,155.5 355.7,249.9 		"/>
		<path class="st4" d="M479.5,150.5V95.9c0,0-7.9-6.1-23.6-13.9L346.5,235.3L479.5,150.5z"/>
		<path class="st4" d="M387.2,58.6c-17.8-3.9-38.3-6.8-61.3-8l-7.6,166.9L387.2,58.6z"/>
		<path class="st4" d="M322.3,50.4c-6.4-0.3-13.1-0.5-19.9-0.5c-14.4,0-27.9,0.7-40.5,1.9l39.8,164.1L322.3,50.4z"/>
		<path class="st4" d="M454.4,81.2c-14.8-7.2-36.3-15.6-64.3-22l-56.5,164.9L454.4,81.2z"/>
		<path class="st0" d="M364.9,286.2l-4.8-1.9l118-3.3c0.2-2.4,0.4-4.8,0.6-7.3l-118.3-7l119.2-42.6v-6.8l-123.8,32.5l123.9-94.5v-5
			l-133,84.8L456,82c-0.5-0.3-1-0.5-1.6-0.8l-120.7,143l56.5-164.9c-1-0.2-2-0.4-3-0.7l-68.9,158.9l7.6-166.9
			c-1.2-0.1-2.4-0.1-3.6-0.2L301.8,216L261.9,51.8c-1.1,0.1-2.3,0.2-3.4,0.3l27,167.4L195.3,64.2c-0.8,0.2-1.6,0.5-2.4,0.7
			L271,228.2L127.2,94.5c-0.3,0.2-0.5,0.4-0.7,0.5l133.1,145.9l-134.3-63.8v5.4l126.9,74l-127-16.5v6.6l124.2,27.3l-121,22.8
			c0.3,2.3,0.7,4.6,1,6.8l122.2-12.2"/>
	</g>
	<g>
		<path class="st2" d="M302.5,483l-3.3-3c-13.9-12.7-32.8-21.6-52.8-31c-56.2-26.5-126.1-59.4-126.1-200.7V93.5l1.9-1.5
			c2.5-1.9,61.7-47,180.2-47s177.7,45.1,180.2,47l1.9,1.5l-0.1,154.7c0,141.3-69.8,174.3-125.9,200.8c-20,9.4-38.8,18.3-52.7,31
			L302.5,483z M130.1,98.4v149.9c0,135.1,64,165.3,120.5,191.9c19.2,9,37.4,17.6,51.9,29.8c14.5-12.1,32.7-20.7,51.8-29.7
			c56.4-26.6,120.3-56.8,120.3-192l0.1-149.8c-4.8-3.3-18.8-12.3-41.6-21.1C406.6,67,362.4,54.8,302.4,54.8
			C198.6,54.8,140.9,90.9,130.1,98.4z"/>
	</g>
	<polygon class="st3" points="559.3,334.8 45.5,334.8 75.9,287.4 45.5,240.8 559.3,240.8 533.8,287.4 	"/>
	<g>
		<path class="st0" d="M169.2,299.2h-11.9l-1.7,5.6h-10.7l12.8-34h11.5l12.8,34h-11L169.2,299.2z M167,291.8l-3.8-12.2l-3.7,12.2
			H167z"/>
		<path class="st0" d="M187.7,270.8h10.5v25.7h16.4v8.4h-26.9V270.8z"/>
		<path class="st0" d="M221.8,270.8h26v7.3h-15.4v5.9h13.2v6.9h-13.2v13.9h-10.6V270.8z"/>
		<path class="st0" d="M272.3,299.2h-11.9l-1.7,5.6H248l12.8-34h11.5l12.8,34h-11L272.3,299.2z M270.1,291.8l-3.8-12.2l-3.7,12.2
			H270.1z"/>
		<path class="st0" d="M306.6,270.8h32v8.4h-10.7v25.6h-10.5v-25.6h-10.7V270.8z"/>
		<path class="st0" d="M345.6,270.8h28.2v7.3h-17.6v5.4h16.4v6.9h-16.4v6.7h18.2v7.7h-28.7V270.8z"/>
		<path class="st0" d="M403.3,299.2h-11.9l-1.7,5.6H379l12.8-34h11.5l12.8,34h-11L403.3,299.2z M401.1,291.8l-3.8-12.2l-3.7,12.2
			H401.1z"/>
		<path class="st0" d="M421.6,270.8h13.8l5.3,20.7l5.3-20.7h13.8v34h-8.6v-26l-6.6,26h-7.8l-6.6-26v26h-8.6V270.8z"/>
	</g>
</g>
<polygon class="st0" points="186.4,344.1 191.5,359.7 208,359.8 194.7,369.6 199.7,385.2 186.4,375.6 173,385.2 178,369.6 
	164.8,359.8 181.2,359.7 "/>
<polygon class="st0" points="244.4,344.1 249.5,359.7 266,359.8 252.7,369.6 257.7,385.2 244.4,375.6 231,385.2 236,369.6 
	222.8,359.8 239.2,359.7 "/>
<polygon class="st0" points="302.4,344.1 307.5,359.7 324,359.8 310.7,369.6 315.7,385.2 302.4,375.6 289,385.2 294,369.6 
	280.8,359.8 297.2,359.7 "/>
<polygon class="st0" points="360.4,344.1 365.5,359.7 382,359.8 368.7,369.6 373.7,385.2 360.4,375.6 347,385.2 352,369.6 
	338.8,359.8 355.2,359.7 "/>
<polygon class="st0" points="418.4,344.1 423.5,359.7 440,359.8 426.7,369.6 431.7,385.2 418.4,375.6 405,385.2 410,369.6 
	396.8,359.8 413.2,359.7 "/>
<polyline class="st0" points="222.8,437.5 222.8,396.1 265.1,396.1 265.1,458 "/>
<path class="st0" d="M303.9,481.7c4.2-5.1,19.6-14.8,19.6-14.8v-70.8h-42.3v70.7c0,0,13.7,8.3,19.8,14.9l1.4,1.3L303.9,481.7z"/>
<polyline class="st0" points="339.7,458.1 339.7,396.1 382,396.1 382,437.5 "/>
</svg>
