<?xml version="1.0" encoding="utf-8"?>
<!-- Generator: Adobe Illustrator 24.0.1, SVG Export Plug-In . SVG Version: 6.00 Build 0)  -->
<svg version="1.1" id="Livello_1" xmlns="http://www.w3.org/2000/svg" xmlns:xlink="http://www.w3.org/1999/xlink" x="0px" y="0px"
	 viewBox="0 0 200 200" style="enable-background:new 0 0 200 200;" xml:space="preserve">
<style type="text/css">
	.st0{fill:url(#SVGID_1_);}
</style>
<linearGradient id="SVGID_1_" gradientUnits="userSpaceOnUse" x1="99.9031" y1="11.2682" x2="99.9031" y2="198.9461">
	<stop  offset="4.741732e-07" style="stop-color:#62F6A6"/>
	<stop  offset="0.1196" style="stop-color:#63F79B"/>
	<stop  offset="0.328" style="stop-color:#67F87F"/>
	<stop  offset="0.6003" style="stop-color:#6CFB50"/>
	<stop  offset="0.9229" style="stop-color:#74FE10"/>
	<stop  offset="1" style="stop-color:#76FF00"/>
</linearGradient>
<path class="st0" d="M131.7,169.2C131.6,169.2,131.7,169.2,131.7,169.2c0-10.4,0-20.7,0-30.9c0-4.1-0.6-8.1-2-11.9
	c-1.1-2.9-2.6-5.4-5.1-7.7c3.5-0.6,6.9-1.1,10.2-1.8c5-1,9.8-2.6,14.4-4.9c8.8-4.4,15.3-11,18.9-20.1c5-12.7,6.2-25.8,2.4-39.1
	c-1.4-5-4-9.5-7.4-13.4c-0.8-0.9-0.9-1.6-0.5-2.7c2.8-8.6,1.6-17.1-1.5-25.4c-0.4-1-1.1-1.1-1.9-1.1c-3.8-0.1-7.5,0.9-11,2.3
	c-5.2,1.9-10.1,4.5-14.8,7.5c-1,0.7-1.9,0.9-3.2,0.5c-14.5-3.8-29.1-3.8-43.7-1c-5.1,1-9.3,0.8-13.8-2.2c-5.4-3.6-11.5-6-18.1-7
	c-1.1-0.2-1.9-0.3-2.5-0.3l-2,0.7c-0.5,0.6-0.9,1.6-1.4,3.3c-2.4,7.7-2.5,15.4-0.4,23.1c0.3,1.1,0.2,1.9-0.6,2.8
	c-6.4,7.5-9.4,16.3-9.5,26.1c-0.1,7.8,0.6,15.5,3.1,23c4.9,14.9,15.6,23.4,30.4,27.5c4.6,1.3,9.3,2.1,14.5,2.7
	c-1.4,1.6-2.7,2.9-3.6,4.5c-1.4,2.5-2.3,5.1-2.6,8c-0.1,1.1-0.6,1.7-1.6,2.1c-12.1,4.9-22.8,1.5-29.8-9.5c-3.3-5.2-7.8-8.8-14-10
	c-1.9-0.4-3.8-0.4-5.7,0.2c-1.6,0.6-1.9,1.6-0.9,3c0.7,1,1.7,1.8,2.8,2.5c6.1,3.7,9.9,9.3,12.6,15.6c4.1,9.8,11.7,14.3,21.9,15.2
	c4.6,0.4,9.2-0.1,13.8-1.2c0,6.4-0.1,13.4-0.1,19.7c0,0,0.3,19.8,26.3,19.8S131.7,169.2,131.7,169.2z"/>
</svg>
