<?xml version="1.0" encoding="utf-8"?>
<!-- Generator: Adobe Illustrator 24.0.1, SVG Export Plug-In . SVG Version: 6.00 Build 0)  -->
<svg version="1.1" id="Livello_1" xmlns="http://www.w3.org/2000/svg" xmlns:xlink="http://www.w3.org/1999/xlink" x="0px" y="0px"
	 viewBox="0 0 488.95 198.5" style="enable-background:new 0 0 488.95 198.5;" xml:space="preserve">
<style type="text/css">
	.st0{fill:#F4F6F5;}
	.st1{opacity:0.6;}
	.st2{fill:url(#SVGID_1_);}
	.st3{fill:url(#SVGID_2_);}
	.st4{fill:url(#SVGID_3_);}
	.st5{fill:url(#SVGID_4_);}
	.st6{fill:#B2D2B6;stroke:#B2D2B6;stroke-miterlimit:10;}
</style>
<g>
	<g>
		<g>
			<path class="st0" d="M87.03,105.7c0,8.33-2.05,15.42-6.15,21.27c-4.1,5.85-9.47,10.23-16.1,13.13c-6.64,2.9-13.73,4.35-21.3,4.35
				c-4.39,0-8.42-0.39-12.1-1.17c-3.68-0.78-7.02-2.02-10.03-3.71c-3.01-1.69-6.13-4.07-9.36-7.15l18.67-17.71
				c2.28,2.07,4.25,3.52,5.92,4.35c1.67,0.83,3.99,1.25,6.95,1.25c4.56,0,8.21-1.27,10.96-3.82c2.75-2.55,4.13-6.35,4.13-11.39
				v-71.9h28.4V105.7z"/>
		</g>
		<g>
			<path class="st0" d="M147.21,104.79c0,5.8-1.14,11.18-3.41,16.12c-2.27,4.95-5.45,9.18-9.52,12.72
				c-4.07,3.53-8.78,6.22-14.12,8.06c-5.34,1.84-11,2.76-16.97,2.76c-7.88,0-15.19-1.64-21.93-4.92
				c-6.74-3.28-12.06-7.93-15.94-13.96c-3.89-6.03-5.83-12.95-5.83-20.78v-71.6h28.4v71c0,5.05,1.36,9,4.09,11.85
				c2.73,2.85,6.48,4.28,11.25,4.28c3.07,0,5.8-0.63,8.19-1.89c2.39-1.26,4.21-3.1,5.49-5.53c1.27-2.42,1.91-5.32,1.91-8.7v-71h28.4
				V104.79z"/>
		</g>
		<path class="st0" d="M190.41,33.19v24.14l-2.65-0.23c0,0-7.56-1.14-12.37-1.14c-4.55,0-8.01,1.03-10.39,3.1
			c-2.38,2.07-3.57,4.44-3.57,7.11c0,1.97,0.77,3.68,2.3,5.15c1.8,1.72,4.44,2.8,7.93,3.25l13.96,1.82
			c10.15,1.41,17.74,4.47,22.76,9.16c3.01,2.78,5.2,6.14,6.54,10.1c1.35,3.96,2.02,8.67,2.02,14.12c0,7.22-2,13.45-5.99,18.69
			c-3.99,5.25-9.39,9.22-16.18,11.92c-6.79,2.7-14.29,4.05-22.48,4.05c-9.57,0-17.9-1.08-24.98-3.25
			c-7.09-2.17-13.38-5.93-18.88-11.28l18.24-17.41c2.86,2.72,6.61,4.71,11.26,5.94c4.65,1.24,9.49,1.85,14.51,1.85
			c11.05,0,16.58-3.3,16.58-9.92c0-2.83-0.77-5-2.3-6.51c-1.53-1.51-4.07-2.5-7.61-2.95l-13.96-1.89c-10.26-1.36-18-4.62-23.24-9.76
			c-5.29-5.2-7.93-12.59-7.93-22.18c0-6.71,1.71-12.7,5.12-17.98c3.41-5.27,8.3-9.4,14.67-12.38c6.37-2.98,13.84-4.47,22.41-4.47
			c5.12,0,10.02,0.04,14.36,0.8"/>
		<g>
			<path class="st0" d="M275.75,57.34h-28.47v86.21h-28.4V57.34h-28.47V33.19h85.34V57.34z"/>
		</g>
		<g>
			<g class="st1">
				
					<linearGradient id="SVGID_1_" gradientUnits="userSpaceOnUse" x1="-341.2213" y1="328.181" x2="-325.1118" y2="346.4384" gradientTransform="matrix(-1 0 0 -1 49.7304 390.0096)">
					<stop  offset="2.563849e-03" style="stop-color:#FFFFFF"/>
					<stop  offset="0.1011" style="stop-color:#F8FBFB"/>
					<stop  offset="0.2393" style="stop-color:#E6EEEE"/>
					<stop  offset="0.401" style="stop-color:#C8DADA"/>
					<stop  offset="0.5805" style="stop-color:#9EBDBE"/>
					<stop  offset="0.7747" style="stop-color:#699999"/>
					<stop  offset="0.9783" style="stop-color:#286D6E"/>
					<stop  offset="1" style="stop-color:#216869"/>
				</linearGradient>
				<circle class="st2" cx="384.47" cy="54.48" r="11.05"/>
				
					<linearGradient id="SVGID_2_" gradientUnits="userSpaceOnUse" x1="-320.0952" y1="345.1062" x2="-293.6139" y2="374.6429" gradientTransform="matrix(-1 0 0 -1 49.7304 390.0096)">
					<stop  offset="2.563849e-03" style="stop-color:#FFFFFF"/>
					<stop  offset="0.1011" style="stop-color:#F8FBFB"/>
					<stop  offset="0.2393" style="stop-color:#E6EEEE"/>
					<stop  offset="0.401" style="stop-color:#C8DADA"/>
					<stop  offset="0.5805" style="stop-color:#9EBDBE"/>
					<stop  offset="0.7747" style="stop-color:#699999"/>
					<stop  offset="0.9783" style="stop-color:#286D6E"/>
					<stop  offset="1" style="stop-color:#216869"/>
				</linearGradient>
				<circle class="st3" cx="357.25" cy="30.87" r="19.35"/>
			</g>
			<g class="st1">
				
					<linearGradient id="SVGID_3_" gradientUnits="userSpaceOnUse" x1="277.2437" y1="-4.195" x2="293.3531" y2="14.0624" gradientTransform="matrix(1 0 0 1 -53.7087 97.2574)">
					<stop  offset="2.562971e-03" style="stop-color:#216869"/>
					<stop  offset="0.1044" style="stop-color:#286C6D"/>
					<stop  offset="0.2473" style="stop-color:#3A7979"/>
					<stop  offset="0.4144" style="stop-color:#588D8D"/>
					<stop  offset="0.6" style="stop-color:#82A9A9"/>
					<stop  offset="0.8" style="stop-color:#B7CDCD"/>
					<stop  offset="1" style="stop-color:#F4F6F5"/>
				</linearGradient>
				<circle class="st4" cx="230.02" cy="100.41" r="11.05"/>
				
					<linearGradient id="SVGID_4_" gradientUnits="userSpaceOnUse" x1="298.3698" y1="12.7302" x2="324.851" y2="42.2669" gradientTransform="matrix(1 0 0 1 -53.7087 97.2574)">
					<stop  offset="2.562971e-03" style="stop-color:#216869"/>
					<stop  offset="0.1044" style="stop-color:#286C6D"/>
					<stop  offset="0.2473" style="stop-color:#3A7979"/>
					<stop  offset="0.4144" style="stop-color:#588D8D"/>
					<stop  offset="0.6" style="stop-color:#82A9A9"/>
					<stop  offset="0.8" style="stop-color:#B7CDCD"/>
					<stop  offset="1" style="stop-color:#F4F6F5"/>
				</linearGradient>
				<circle class="st5" cx="257.24" cy="124.02" r="19.35"/>
			</g>
			<g>
				<path class="st6" d="M248.83,158.56c3.59-10.45,6.48-21.03,8.65-31.76c2.18-10.72,4.46-25.99,6.86-45.8
					c0.11-1.09,0.35-1.82,0.73-2.21c0.38-0.38,1.17-0.57,2.37-0.57c2.61,0,4.57,0.71,5.88,2.13c1.31,1.42,1.96,3.14,1.96,5.14
					c0,3.08-1.25,10.51-3.76,22.28c3.37-6.62,7.48-12.33,12.33-17.13c4.84-4.8,10.15-7.2,15.92-7.2c4.79,0,8.74,1.75,11.84,5.24
					c3.1,3.49,4.65,8.06,4.65,13.71c0,9.4-3.78,18.61-11.35,27.62c-7.57,9.02-16.63,13.52-27.19,13.52c-2.72,0-4.98-0.31-6.78-0.94
					c-1.8-0.63-2.69-1.34-2.69-2.13c0-0.57,1.36-0.85,4.08-0.85c8.49,0,16.17-3.81,23.02-11.43c6.86-7.62,10.29-15.73,10.29-24.33
					c0-3.7-0.79-6.72-2.37-9.06c-1.58-2.34-3.89-3.51-6.94-3.51c-5.12,0-10.26,2.89-15.43,8.65c-5.17,5.77-9.06,11.65-11.67,17.63
					c-9.58,40.62-16.27,62.77-20.08,66.46c-0.54,0.54-1.2,0.81-1.96,0.81c-1.2,0-2.39-0.93-3.59-2.78
					c-1.09-1.63-1.58-2.72-1.47-3.27c0-0.87,0.24-2.12,0.74-3.76c0.49-1.63,1.42-4.22,2.78-7.76
					C247.01,163.76,248.07,160.85,248.83,158.56z"/>
				<path class="st6" d="M312.72,127.36c0-7.41,2.12-17.3,6.37-29.68c4.25-12.37,9.17-24.09,14.78-35.15
					c5.61-11.06,11.27-20.66,16.98-28.78c5.72-8.12,9.93-12.18,12.66-12.18c1.52,0,2.8,1.36,3.84,4.08c1.03,2.72,1.55,5.39,1.55,8
					c0,8.18-4.47,20.63-13.39,37.37c-8.93,16.74-18.94,29.68-30.04,38.84c-1.42,6.32-2.12,11.83-2.12,16.52
					c0,8.4,2.39,12.59,7.18,12.59c4.03,0,8.14-2.56,12.33-7.69c4.19-5.12,7.92-11.28,11.18-18.48l2.45,1.31
					c-9.36,19.95-19.54,29.92-30.53,29.92h-0.16C317.07,144.03,312.72,138.48,312.72,127.36z M326.92,104.3
					c8.92-9.05,17.31-20.96,25.15-35.73c7.84-14.77,11.76-25.16,11.76-31.15c0-1.75-0.38-2.62-1.14-2.62
					c-1.53,0-4.55,3.52-9.06,10.55c-4.52,7.03-9.39,16.16-14.61,27.39C333.78,83.97,329.75,94.49,326.92,104.3z"/>
				<path class="st6" d="M342.92,133.26c0-6.44,2.25-13.6,6.76-21.46c4.5-7.86,10.34-14.63,17.5-20.31
					c7.16-5.68,14.11-8.52,20.84-8.52c4.28,0,7.85,1.16,10.71,3.47c2.85,2.32,4.28,5.3,4.28,8.93c0,4.68-2.67,7.02-8,7.02
					c0.54-1.96,0.82-3.86,0.82-5.72c0-6.09-2.71-9.14-8.13-9.14c-4.77,0-9.84,2.75-15.21,8.25c-5.37,5.5-9.76,11.87-13.17,19.1
					c-3.42,7.24-5.12,13.53-5.12,18.86c0,4.25,1.47,6.37,4.41,6.37c1.95,0,4.23-0.93,6.84-2.78c2.61-1.85,5-3.92,7.17-6.2
					c2.17-2.29,4.75-5.36,7.74-9.22c2.98-3.86,5.18-6.83,6.6-8.9l5.87-8.49c4.41,0.76,6.61,2.12,6.61,4.08
					c0,0.87-1.61,4.14-4.82,9.8c-3.21,5.66-4.82,9.96-4.82,12.9c0,1.85,0.47,3.51,1.43,4.98c0.95,1.47,2.37,2.2,4.28,2.2
					c3.16,0,7.13-2.26,11.92-6.78c4.79-4.52,3.65-2.03,8.33-10.19h2.75c-3.38,8.65-3.39,8.54-9.54,14.06
					c-6.15,5.51-12.21,8.27-18.17,8.27c-3.77,0-6.65-1.1-8.64-3.29c-1.99-2.19-2.99-4.84-2.99-7.95c0-1.31,0.16-2.88,0.49-4.73
					c-4.9,6.42-9.28,11.13-13.14,14.12c-3.87,2.99-7.7,4.49-11.51,4.49c-3.59,0-6.51-1.12-8.74-3.35
					C344.04,140.9,342.92,137.61,342.92,133.26z"/>
				<path class="st6" d="M408.91,182.64c-1.94-1.48-2.91-3.58-2.91-6.3c0-2.73,0.65-5.32,1.95-7.77c1.3-2.46,2.68-4.51,4.15-6.15
					c1.46-1.64,3.96-3.58,7.48-5.82c3.53-2.24,6.26-3.85,8.22-4.84l9.76-5.08c3.27-8.4,6.33-18.38,9.17-29.92
					c-8.52,13.83-16.48,20.74-23.91,20.74c-3.44,0-6.45-1.11-9.04-3.35c-2.58-2.23-3.87-5.47-3.87-9.72
					c0-5.99,1.78-13.42,5.33-22.29c3.55-8.87,6.52-13.31,8.89-13.31c0.98,0,2.43,0.41,4.34,1.23c1.91,0.82,2.87,1.66,2.87,2.53
					c-2.18,3.16-4.53,8.24-7.04,15.27c-2.51,7.02-3.77,12.6-3.77,16.74c0,4.36,1.96,6.53,5.9,6.53c2.95,0,6.41-2.01,10.4-6.04
					c3.98-4.03,7.78-8.98,11.38-14.86c0.55-1.85,1.09-4.35,1.64-7.51c1.2-5.55,3.99-8.33,8.35-8.33c0.98,0,2.13,0.16,3.44,0.49
					c0,2.94-1.23,8.98-3.69,18.12c-2.46,9.14-5.49,18.29-9.09,27.44c12.34-4.79,21.34-14.04,27.02-27.76l2.12,1.63
					c-4.04,12.74-14.35,22.92-30.95,30.55c-10.89,26.65-21.18,39.97-30.86,39.97C413.28,184.85,410.85,184.11,408.91,182.64z
					 M411.06,174.87c0,1.09,0.37,2.18,1.12,3.28c0.75,1.09,1.82,1.64,3.21,1.64c1.19,0,2.77-0.88,4.73-2.62
					c1.95-1.75,4.4-4.95,7.33-9.59c2.93-4.65,5.76-10.3,8.47-16.97c-4.33,2.29-7.61,4.12-9.83,5.49c-2.22,1.36-4.69,3.09-7.4,5.16
					c-2.71,2.08-4.66,4.21-5.85,6.39C411.65,169.85,411.06,172.25,411.06,174.87z"/>
			</g>
		</g>
	</g>
</g>
</svg>
