<?xml version="1.0" encoding="utf-8"?>
<!-- Generator: Adobe Illustrator 24.0.1, SVG Export Plug-In . SVG Version: 6.00 Build 0)  -->
<svg version="1.1" id="Livello_1" xmlns="http://www.w3.org/2000/svg" xmlns:xlink="http://www.w3.org/1999/xlink" x="0px" y="0px"
	 viewBox="0 0 489 198.5" style="enable-background:new 0 0 489 198.5;" xml:space="preserve">
<style type="text/css">
	.st0{fill:#F4F6F5;}
	.st1{opacity:0.6;}
	.st2{fill:url(#SVGID_1_);}
	.st3{fill:url(#SVGID_2_);}
	.st4{fill:url(#SVGID_3_);}
	.st5{fill:url(#SVGID_4_);}
	.st6{fill:#9FF7AA;stroke:#9FF7AA;stroke-miterlimit:10;}
</style>
<g>
	<g>
		<g>
			<path class="st0" d="M87,105.7c0,8.3-2.1,15.4-6.2,21.3s-9.5,10.2-16.1,13.1c-6.6,2.9-13.7,4.4-21.3,4.4c-4.4,0-8.4-0.4-12.1-1.2
				s-7-2-10-3.7s-6.1-4.1-9.4-7.1l18.7-17.7c2.3,2.1,4.3,3.5,5.9,4.3c1.7,0.8,4,1.3,7,1.3c4.6,0,8.2-1.3,11-3.8s4.1-6.3,4.1-11.4
				V33.2H87L87,105.7L87,105.7z"/>
		</g>
		<g>
			<path class="st0" d="M147.2,104.8c0,5.8-1.1,11.2-3.4,16.1c-2.3,4.9-5.4,9.2-9.5,12.7c-4.1,3.5-8.8,6.2-14.1,8.1s-11,2.8-17,2.8
				c-7.9,0-15.2-1.6-21.9-4.9s-12.1-7.9-15.9-14c-3.9-6-5.8-12.9-5.8-20.8V33.2h28.4v71c0,5.1,1.4,9,4.1,11.8s6.5,4.3,11.3,4.3
				c3.1,0,5.8-0.6,8.2-1.9s4.2-3.1,5.5-5.5c1.3-2.4,1.9-5.3,1.9-8.7v-71h28.4L147.2,104.8L147.2,104.8z"/>
		</g>
		<path class="st0" d="M190.4,33.2v24.1l-2.6-0.2c0,0-7.6-1.1-12.4-1.1c-4.6,0-8,1-10.4,3.1s-3.6,4.4-3.6,7.1c0,2,0.8,3.7,2.3,5.2
			c1.8,1.7,4.4,2.8,7.9,3.3l14,1.8c10.1,1.4,17.7,4.5,22.8,9.2c3,2.8,5.2,6.1,6.5,10.1c1.4,4,2,8.7,2,14.1c0,7.2-2,13.4-6,18.7
			c-4,5.3-9.4,9.2-16.2,11.9c-6.8,2.7-14.3,4.1-22.5,4.1c-9.6,0-17.9-1.1-25-3.3c-7.1-2.2-13.4-5.9-18.9-11.3l18.2-17.4
			c2.9,2.7,6.6,4.7,11.3,5.9c4.6,1.2,9.5,1.8,14.5,1.8c11.1,0,16.6-3.3,16.6-9.9c0-2.8-0.8-5-2.3-6.5s-4.1-2.5-7.6-2.9l-14-1.9
			c-10.3-1.4-18-4.6-23.2-9.8c-5.3-5.2-7.9-12.6-7.9-22.2c0-6.7,1.7-12.7,5.1-18c3.4-5.3,8.3-9.4,14.7-12.4c6.4-3,13.8-4.5,22.4-4.5
			c5.1,0,10,0,14.4,0.8"/>
		<g>
			<path class="st0" d="M275.8,57.3h-28.5v86.2h-28.4V57.3h-28.5V33.2h85.3V57.3z"/>
		</g>
		<g>
			<g class="st1">
				
					<linearGradient id="SVGID_1_" gradientUnits="userSpaceOnUse" x1="-491.2227" y1="-228.1822" x2="-475.1131" y2="-246.4396" gradientTransform="matrix(-1 0 0 1 -100.2696 290.0096)">
					<stop  offset="2.563849e-03" style="stop-color:#FFFFFF"/>
					<stop  offset="0.1011" style="stop-color:#F8FBFB"/>
					<stop  offset="0.2393" style="stop-color:#E6EEEE"/>
					<stop  offset="0.401" style="stop-color:#C8DADA"/>
					<stop  offset="0.5805" style="stop-color:#9EBDBE"/>
					<stop  offset="0.7747" style="stop-color:#699999"/>
					<stop  offset="0.9783" style="stop-color:#286D6E"/>
					<stop  offset="1" style="stop-color:#216869"/>
				</linearGradient>
				<circle class="st2" cx="384.5" cy="54.5" r="11"/>
				
					<linearGradient id="SVGID_2_" gradientUnits="userSpaceOnUse" x1="-470.0986" y1="-245.1093" x2="-443.6173" y2="-274.646" gradientTransform="matrix(-1 0 0 1 -100.2696 290.0096)">
					<stop  offset="2.563849e-03" style="stop-color:#FFFFFF"/>
					<stop  offset="0.1011" style="stop-color:#F8FBFB"/>
					<stop  offset="0.2393" style="stop-color:#E6EEEE"/>
					<stop  offset="0.401" style="stop-color:#C8DADA"/>
					<stop  offset="0.5805" style="stop-color:#9EBDBE"/>
					<stop  offset="0.7747" style="stop-color:#699999"/>
					<stop  offset="0.9783" style="stop-color:#286D6E"/>
					<stop  offset="1" style="stop-color:#216869"/>
				</linearGradient>
				<circle class="st3" cx="357.3" cy="30.9" r="19.4"/>
			</g>
			<g class="st1">
				
					<linearGradient id="SVGID_3_" gradientUnits="userSpaceOnUse" x1="277.2448" y1="202.1959" x2="293.3541" y2="183.9385" gradientTransform="matrix(1 0 0 -1 -53.7087 295.2574)">
					<stop  offset="2.562971e-03" style="stop-color:#216869"/>
					<stop  offset="0.1044" style="stop-color:#286C6D"/>
					<stop  offset="0.2473" style="stop-color:#3A7979"/>
					<stop  offset="0.4144" style="stop-color:#588D8D"/>
					<stop  offset="0.6" style="stop-color:#82A9A9"/>
					<stop  offset="0.8" style="stop-color:#B7CDCD"/>
					<stop  offset="1" style="stop-color:#F4F6F5"/>
				</linearGradient>
				<circle class="st4" cx="230" cy="100.4" r="11.1"/>
				
					<linearGradient id="SVGID_4_" gradientUnits="userSpaceOnUse" x1="298.3687" y1="185.2689" x2="324.8499" y2="155.7322" gradientTransform="matrix(1 0 0 -1 -53.7087 295.2574)">
					<stop  offset="2.562971e-03" style="stop-color:#216869"/>
					<stop  offset="0.1044" style="stop-color:#286C6D"/>
					<stop  offset="0.2473" style="stop-color:#3A7979"/>
					<stop  offset="0.4144" style="stop-color:#588D8D"/>
					<stop  offset="0.6" style="stop-color:#82A9A9"/>
					<stop  offset="0.8" style="stop-color:#B7CDCD"/>
					<stop  offset="1" style="stop-color:#F4F6F5"/>
				</linearGradient>
				<circle class="st5" cx="257.2" cy="124" r="19.4"/>
			</g>
			<g>
				<path class="st6" d="M248.8,158.6c3.6-10.4,6.5-21,8.7-31.8c2.2-10.7,4.5-26,6.9-45.8c0.1-1.1,0.4-1.8,0.7-2.2
					c0.4-0.4,1.2-0.6,2.4-0.6c2.6,0,4.6,0.7,5.9,2.1s2,3.1,2,5.1c0,3.1-1.3,10.5-3.8,22.3c3.4-6.6,7.5-12.3,12.3-17.1
					c4.8-4.8,10.1-7.2,15.9-7.2c4.8,0,8.7,1.8,11.8,5.2s4.6,8.1,4.6,13.7c0,9.4-3.8,18.6-11.4,27.6c-7.6,9-16.6,13.5-27.2,13.5
					c-2.7,0-5-0.3-6.8-0.9s-2.7-1.3-2.7-2.1c0-0.6,1.4-0.9,4.1-0.9c8.5,0,16.2-3.8,23-11.4c6.9-7.6,10.3-15.7,10.3-24.3
					c0-3.7-0.8-6.7-2.4-9.1s-3.9-3.5-6.9-3.5c-5.1,0-10.3,2.9-15.4,8.7c-5.2,5.8-9.1,11.7-11.7,17.6c-9.6,40.6-16.3,62.8-20.1,66.5
					c-0.5,0.5-1.2,0.8-2,0.8c-1.2,0-2.4-0.9-3.6-2.8c-1.1-1.6-1.6-2.7-1.5-3.3c0-0.9,0.2-2.1,0.7-3.8c0.5-1.6,1.4-4.2,2.8-7.8
					C247,163.8,248.1,160.9,248.8,158.6z"/>
				<path class="st6" d="M312.7,127.4c0-7.4,2.1-17.3,6.4-29.7c4.3-12.4,9.2-24.1,14.8-35.2s11.3-20.7,17-28.8
					c5.7-8.1,9.9-12.2,12.7-12.2c1.5,0,2.8,1.4,3.8,4.1c1,2.7,1.5,5.4,1.5,8c0,8.2-4.5,20.6-13.4,37.4c-8.9,16.7-18.9,29.7-30,38.8
					c-1.4,6.3-2.1,11.8-2.1,16.5c0,8.4,2.4,12.6,7.2,12.6c4,0,8.1-2.6,12.3-7.7c4.2-5.1,7.9-11.3,11.2-18.5l2.5,1.3
					c-9.4,19.9-19.5,29.9-30.5,29.9h-0.2C317.1,144,312.7,138.5,312.7,127.4z M326.9,104.3c8.9-9.1,17.3-21,25.1-35.7
					s11.8-25.2,11.8-31.2c0-1.8-0.4-2.6-1.1-2.6c-1.5,0-4.5,3.5-9.1,10.5c-4.5,7-9.4,16.2-14.6,27.4
					C333.8,84,329.8,94.5,326.9,104.3z"/>
				<path class="st6" d="M342.9,133.3c0-6.4,2.3-13.6,6.8-21.5c4.5-7.9,10.3-14.6,17.5-20.3S381.3,83,388,83c4.3,0,7.9,1.2,10.7,3.5
					c2.9,2.3,4.3,5.3,4.3,8.9c0,4.7-2.7,7-8,7c0.5-2,0.8-3.9,0.8-5.7c0-6.1-2.7-9.1-8.1-9.1c-4.8,0-9.8,2.8-15.2,8.3
					s-9.8,11.9-13.2,19.1c-3.4,7.2-5.1,13.5-5.1,18.9c0,4.3,1.5,6.4,4.4,6.4c2,0,4.2-0.9,6.8-2.8s5-3.9,7.2-6.2
					c2.2-2.3,4.8-5.4,7.7-9.2c3-3.9,5.2-6.8,6.6-8.9l5.9-8.5c4.4,0.8,6.6,2.1,6.6,4.1c0,0.9-1.6,4.1-4.8,9.8
					c-3.2,5.7-4.8,10-4.8,12.9c0,1.9,0.5,3.5,1.4,5c1,1.5,2.4,2.2,4.3,2.2c3.2,0,7.1-2.3,11.9-6.8c4.8-4.5,3.6-2,8.3-10.2h2.8
					c-3.4,8.6-3.4,8.5-9.5,14.1c-6.1,5.5-12.2,8.3-18.2,8.3c-3.8,0-6.6-1.1-8.6-3.3c-2-2.2-3-4.8-3-7.9c0-1.3,0.2-2.9,0.5-4.7
					c-4.9,6.4-9.3,11.1-13.1,14.1c-3.9,3-7.7,4.5-11.5,4.5c-3.6,0-6.5-1.1-8.7-3.4C344,140.9,342.9,137.6,342.9,133.3z"/>
				<path class="st6" d="M408.9,182.6c-1.9-1.5-2.9-3.6-2.9-6.3c0-2.7,0.6-5.3,2-7.8c1.3-2.5,2.7-4.5,4.1-6.1c1.5-1.6,4-3.6,7.5-5.8
					c3.5-2.2,6.3-3.9,8.2-4.8l9.8-5.1c3.3-8.4,6.3-18.4,9.2-29.9c-8.5,13.8-16.5,20.7-23.9,20.7c-3.4,0-6.5-1.1-9-3.4
					c-2.6-2.2-3.9-5.5-3.9-9.7c0-6,1.8-13.4,5.3-22.3s6.5-13.3,8.9-13.3c1,0,2.4,0.4,4.3,1.2s2.9,1.7,2.9,2.5
					c-2.2,3.2-4.5,8.2-7,15.3c-2.5,7-3.8,12.6-3.8,16.7c0,4.4,2,6.5,5.9,6.5c3,0,6.4-2,10.4-6c4-4,7.8-9,11.4-14.9
					c0.5-1.8,1.1-4.3,1.6-7.5c1.2-5.6,4-8.3,8.4-8.3c1,0,2.1,0.2,3.4,0.5c0,2.9-1.2,9-3.7,18.1s-5.5,18.3-9.1,27.4
					c12.3-4.8,21.3-14,27-27.8l2.1,1.6c-4,12.7-14.4,22.9-31,30.6c-10.9,26.6-21.2,40-30.9,40C413.3,184.9,410.9,184.1,408.9,182.6z
					 M411.1,174.9c0,1.1,0.4,2.2,1.1,3.3c0.8,1.1,1.8,1.6,3.2,1.6c1.2,0,2.8-0.9,4.7-2.6c2-1.8,4.4-4.9,7.3-9.6
					c2.9-4.6,5.8-10.3,8.5-17c-4.3,2.3-7.6,4.1-9.8,5.5c-2.2,1.4-4.7,3.1-7.4,5.2c-2.7,2.1-4.7,4.2-5.9,6.4
					C411.6,169.9,411.1,172.3,411.1,174.9z"/>
			</g>
		</g>
	</g>
</g>
</svg>
