<?xml version="1.0" encoding="utf-8"?>
<!-- Generator: Adobe Illustrator 24.0.1, SVG Export Plug-In . SVG Version: 6.00 Build 0)  -->
<svg version="1.1" xmlns="http://www.w3.org/2000/svg" xmlns:xlink="http://www.w3.org/1999/xlink" x="0px" y="0px"
	 viewBox="0 0 500 500" style="enable-background:new 0 0 500 500;" xml:space="preserve">
<style type="text/css">
	.st0{fill:#C6FF00;}
	.st1{opacity:0.8;fill:#FFFFFF;}
	.st2{fill:none;stroke:#263238;stroke-linecap:round;stroke-linejoin:round;stroke-miterlimit:10;}
	.st3{fill:#FFFFFF;stroke:#263238;stroke-linecap:round;stroke-linejoin:round;stroke-miterlimit:10;}
	.st4{clip-path:url(#XMLID_9_);}
	.st5{fill:#FFFFFF;}
	.st6{opacity:0.1;}
	.st7{fill:#263238;stroke:#263238;stroke-linecap:round;stroke-linejoin:round;stroke-miterlimit:10;}
	.st8{fill:none;stroke:#FFFFFF;stroke-linecap:round;stroke-linejoin:round;stroke-miterlimit:10;}
	.st9{display:none;fill:#FFFFFF;stroke:#263238;stroke-miterlimit:10;}
	.st10{fill:#C6FF00;stroke:#263238;stroke-linecap:round;stroke-linejoin:round;stroke-miterlimit:10;}
	.st11{opacity:0.1;clip-path:url(#XMLID_10_);}
	.st12{opacity:0.1;clip-path:url(#XMLID_11_);}
	.st13{opacity:0.1;clip-path:url(#XMLID_12_);}
	.st14{clip-path:url(#XMLID_13_);}
	.st15{clip-path:url(#XMLID_13_);fill:#FFFFFF;}
	.st16{opacity:0.1;clip-path:url(#XMLID_14_);}
</style>
<g id="Background_Simple">
	<g>
		<path class="st0" d="M167.97,94.51c-16.6,5.99-31.9,13.68-45.08,22.85c-12.52,8.71-23.89,19.24-33.68,31.27
			c-49.27,60.55-57.13,155.88-11.56,224.94c25.14,38.1,73.3,77.06,118.41,72.68c31.9-3.1,60.9-20.6,93.69-17.59
			c33.78,3.09,64.51,7.76,95.1-10.56c32.77-19.63,52.33-58.38,58.04-98.4c7.08-49.67-1.57-107.21-24.2-152.6
			C374.24,77.94,253.7,63.58,167.97,94.51z"/>
		<path class="st1" d="M167.97,94.51c-16.6,5.99-31.9,13.68-45.08,22.85c-12.52,8.71-23.89,19.24-33.68,31.27
			c-49.27,60.55-57.13,155.88-11.56,224.94c25.14,38.1,73.3,77.06,118.41,72.68c31.9-3.1,60.9-20.6,93.69-17.59
			c33.78,3.09,64.51,7.76,95.1-10.56c32.77-19.63,52.33-58.38,58.04-98.4c7.08-49.67-1.57-107.21-24.2-152.6
			C374.24,77.94,253.7,63.58,167.97,94.51z"/>
	</g>
</g>
<g id="Plants">
	<g>
		<g>
			<g>
				<g>
					<path class="st0" d="M111.32,255.7c0,0,0-3.76-5.26-9.02c-5.26-5.26-8.64-8.27-8.64-8.27s-2.63,8.64,2.25,13.9
						c4.88,5.26,11.65,10.14,11.65,10.14V255.7z"/>
					<path class="st0" d="M103.69,279.16c0,0,0-3.76-5.26-9.02c-5.26-5.26-8.64-8.27-8.64-8.27s-2.63,8.64,2.25,13.9
						c4.88,5.26,11.65,10.14,11.65,10.14V279.16z"/>
					<path class="st0" d="M110.99,262.1c0,0,0.4-3.74,6.18-8.41c5.79-4.67,9.47-7.31,9.47-7.31s1.7,8.87-3.71,13.58
						c-5.41,4.71-12.65,8.86-12.65,8.86L110.99,262.1z"/>
					<path class="st0" d="M101.77,289.81c0,0,0.79-3.67,7.03-7.71c6.25-4.04,10.18-6.27,10.18-6.27s0.76,9-5.12,13.12
						c-5.88,4.12-13.51,7.48-13.51,7.48L101.77,289.81z"/>
					<path class="st0" d="M103.5,320.02c0,0,0-3.76,5.26-9.02c5.26-5.26,8.64-8.27,8.64-8.27s2.63,8.64-2.25,13.9
						c-4.88,5.26-11.65,10.14-11.65,10.14V320.02z"/>
					<path class="st0" d="M103.42,327.39c0,0,0.53-3.72-3.92-9.67c-4.46-5.95-7.38-9.41-7.38-9.41s-3.83,8.18,0.26,14.08
						c4.09,5.9,10.09,11.7,10.09,11.7L103.42,327.39z"/>
					<path class="st0" d="M98.23,349.25c0,0,0-3.76,5.26-9.02c5.26-5.26,8.64-8.27,8.64-8.27s2.63,8.64-2.25,13.9
						c-4.88,5.26-11.65,10.14-11.65,10.14V349.25z"/>
					<path class="st0" d="M101.74,369.06c0,0-0.95-3.63,2.8-10.05c3.76-6.42,6.27-10.18,6.27-10.18s4.73,7.69,1.34,14.02
						s-8.7,12.76-8.7,12.76L101.74,369.06z"/>
				</g>
				<path class="st2" d="M111.8,254.74c-0.31,4.02-0.76,8.17-1.44,11.67c-2.08,10.74-7.28,17.67-9.36,27.38
					c-2.08,9.7,3.89,22.2,2.29,34.67c-1.6,12.46-6.45,19.39-5.06,27.71c1.39,8.32,8.66,30.84,8.66,30.84"/>
				<line class="st2" x1="110.94" y1="264.59" x2="116.61" y2="260.24"/>
				<line class="st2" x1="111.2" y1="259.58" x2="108.83" y2="255.37"/>
				<path class="st2" d="M101.32,293.33c0,0,4.75-3.56,9.62-7.12"/>
				<path class="st2" d="M103.69,285.92c0,0-3.95-7.75-8.44-12.89"/>
				<path class="st2" d="M103.69,325.36c0,0,3.69-7.25,10.15-13.58"/>
				<path class="st2" d="M102.77,330.64c0,0-2.37-5.67-5.14-9.75c-2.77-4.09-3.16-4.61-3.16-4.61"/>
				<path class="st2" d="M98.23,356.15c0,0,1.9-4.82,4.27-8.64c2.37-3.82,5.54-7.25,5.54-7.25"/>
				<path class="st2" d="M103.45,375.6c0,0-0.56-4.5,1.42-8.32c1.98-3.82,4.22-8.83,5.14-10.81"/>
			</g>
			<g>
				<g>
					<path class="st0" d="M68.4,305.89c0,0-0.41-2.36,2.32-6.23c2.73-3.87,4.52-6.12,4.52-6.12s2.59,5.13,0.1,8.96
						c-2.49,3.83-6.2,7.63-6.2,7.63L68.4,305.89z"/>
					<path class="st0" d="M75.73,319.77c0,0-0.41-2.36,2.32-6.23c2.73-3.87,4.52-6.12,4.52-6.12s2.59,5.13,0.1,8.96
						c-2.49,3.83-6.2,7.63-6.2,7.63L75.73,319.77z"/>
					<path class="st0" d="M69.3,309.87c0,0-0.65-2.3-4.79-4.6c-4.14-2.3-6.73-3.55-6.73-3.55s-0.1,5.75,3.8,8.12
						c3.91,2.37,8.9,4.18,8.9,4.18L69.3,309.87z"/>
					<path class="st0" d="M78.09,326.24c0,0-0.89-2.22-5.25-4.07c-4.35-1.86-7.06-2.83-7.06-2.83s0.5,5.73,4.63,7.67
						c4.13,1.95,9.29,3.22,9.29,3.22L78.09,326.24z"/>
					<path class="st0" d="M80.29,345.37c0,0-0.41-2.36-4.28-5.08c-3.87-2.73-6.32-4.24-6.32-4.24s-0.71,5.7,2.92,8.47
						c3.63,2.77,8.4,5.1,8.4,5.1L80.29,345.37z"/>
					<path class="st0" d="M81.14,349.99c0,0-0.74-2.27,1.41-6.49c2.15-4.22,3.61-6.7,3.61-6.7s3.29,4.71,1.37,8.86
						c-1.92,4.14-5.06,8.43-5.06,8.43L81.14,349.99z"/>
					<path class="st0" d="M87.74,368.99c0,0,0.27-2.38,3.98-5.32c3.71-2.94,6.06-4.6,6.06-4.6s1.04,5.65-2.43,8.63
						c-3.47,2.97-8.1,5.57-8.1,5.57L87.74,368.99z"/>
					<path class="st0" d="M86.77,363.13c0,0-0.41-2.36-4.28-5.08c-3.87-2.73-6.32-4.24-6.32-4.24s-0.71,5.7,2.92,8.47
						c3.63,2.77,8.4,5.1,8.4,5.1L86.77,363.13z"/>
					<path class="st0" d="M86.71,375.94c0,0,0.2-2.38-2.85-6c-3.05-3.62-5.03-5.71-5.03-5.71s-2.13,5.34,0.68,8.94
						c2.81,3.6,6.84,7.06,6.84,7.06L86.71,375.94z"/>
				</g>
				<path class="st2" d="M68,305.34c0.63,2.48,1.37,5.04,2.17,7.16c2.47,6.51,6.48,10.29,8.84,16.15
					c2.36,5.86-0.03,14.35,2.33,21.99c2.36,7.64,6.15,11.46,6.18,16.83c0.03,5.37-2.08,20.28-2.08,20.28"/>
				<line class="st2" x1="69.61" y1="311.43" x2="65.58" y2="309.31"/>
				<line class="st2" x1="68.9" y1="308.31" x2="69.93" y2="305.41"/>
				<path class="st2" d="M78.76,328.4c0,0-3.36-1.72-6.81-3.42"/>
				<path class="st2" d="M76.47,324.01c0,0,1.64-5.29,3.89-9"/>
				<path class="st2" d="M80.75,348.75c0,0-3.1-4.15-7.84-7.41"/>
				<path class="st2" d="M81.9,351.95c0,0,0.87-3.81,2.16-6.68c1.29-2.86,1.48-3.24,1.48-3.24"/>
				<path class="st2" d="M87.33,371.53c0,0,2.67-3.27,4.33-4.5c1.66-1.22,2.81-2.45,2.81-2.45"/>
				<path class="st2" d="M87.52,367.46c0,0-1.72-2.82-3.62-4.96c-1.9-2.14-4.26-3.95-4.26-3.95"/>
				<path class="st2" d="M86.35,380.22c0,0-0.14-2.88-1.79-5.06c-1.65-2.18-3.6-5.08-4.4-6.22"/>
			</g>
		</g>
		<g>
			<path class="st3" d="M110.53,399.5H83.12c-1.93,0-3.5-1.57-3.5-3.5v-10.86h34.41V396C114.03,397.93,112.46,399.5,110.53,399.5z"
				/>
			<path class="st3" d="M113.73,389.63H79.62c-1.49,0-2.69-1.21-2.69-2.69l0,0c0-1.49,1.21-2.69,2.69-2.69h34.11
				c1.49,0,2.69,1.21,2.69,2.69l0,0C116.42,388.42,115.22,389.63,113.73,389.63z"/>
		</g>
	</g>
</g>
<g id="Window">
	<line class="st2" x1="53.71" y1="349.08" x2="453.57" y2="349.08"/>
	<line class="st2" x1="53.71" y1="393.96" x2="453.57" y2="393.96"/>
	<g>
		<defs>
			<path id="XMLID_3_" d="M187.62,345.84H91.58V118.76h96.04V345.84z M297.3,118.76h-96.04v227.08h96.04V118.76z M406.99,118.76
				h-96.04v227.08h96.04V118.76z"/>
		</defs>
		<clipPath id="XMLID_9_">
			<use xlink:href="#XMLID_3_"  style="overflow:visible;"/>
		</clipPath>
		<g class="st4">
			<g>
				<path class="st5" d="M302.14,162.02v1.46h0.84C302.72,163,302.45,162.52,302.14,162.02z"/>
			</g>
			<g>
				<path class="st5" d="M217.56,163.35c-3.43-1.87-4.98-0.31-6.23-1.87c-1.25-1.56,3.43-5.61-5.92-9.65c0,0-0.62-8.72-13.39-9.03
					c-12.77-0.31-9.34,8.72-12.77,10.9c-3.43,2.18-4.36-1.25-7.78,0.93c-3.43,2.18-1.87,6.54-4.67,7.16
					c-2.8,0.62-6.54-2.8-9.96-0.62c-3.43,2.18-3.43,4.05-4.98,4.05c-1.56,0-4.67-1.25-6.54,0c-1.87,1.25-4.05,2.8-4.05,2.8h78.78
					C220.05,168.02,220.98,165.22,217.56,163.35z"/>
			</g>
			<g>
				<path class="st5" d="M439.59,199.03c-3.43-1.87-4.98-0.31-6.23-1.87c-1.25-1.56,3.43-5.61-5.92-9.65c0,0-0.62-8.72-13.39-9.03
					c-12.77-0.31-9.34,8.72-12.77,10.9c-3.43,2.18-4.36-1.25-7.78,0.93c-3.43,2.18-1.87,6.54-4.67,7.16
					c-2.8,0.62-6.54-2.8-9.96-0.62c-3.43,2.18-3.43,4.05-4.98,4.05c-1.56,0-4.67-1.25-6.54,0c-1.87,1.25-4.05,2.8-4.05,2.8h78.78
					C442.08,203.71,443.01,200.9,439.59,199.03z"/>
			</g>
			<g>
				<path class="st5" d="M234.88,198.41c-2.14-1.17-3.11-0.19-3.89-1.17c-0.78-0.97,2.14-3.5-3.69-6.03c0,0-0.39-5.44-8.36-5.64
					c-7.97-0.19-5.83,5.44-7.97,6.8c-2.14,1.36-2.72-0.78-4.86,0.58c-2.14,1.36-1.17,4.08-2.92,4.47c-1.75,0.39-4.08-1.75-6.22-0.39
					c-2.14,1.36-2.14,2.53-3.11,2.53c-0.97,0-2.92-0.78-4.08,0c-1.17,0.78-2.53,1.75-2.53,1.75h49.17
					C236.43,201.33,237.01,199.58,234.88,198.41z"/>
			</g>
			<polyline class="st6" points="41.86,353.92 41.86,270.65 91.31,270.65 91.31,170.79 124.61,170.79 124.61,192.71 143.26,192.71 
				143.26,257.26 188.54,257.26 188.54,221.94 209.85,221.94 209.85,241.42 225.53,241.42 232.56,241.42 233.12,248.73 
				251.52,248.73 251.52,219.5 266.17,219.5 266.17,128.16 302.14,128.16 302.14,163.48 328.77,163.48 328.77,119 358.07,119 
				358.07,228.03 388.71,228.03 388.71,268.22 410.09,268.22 410.09,355.72 			"/>
			<rect x="97.2" y="192.42" class="st6" width="7.2" height="7.8"/>
			<rect x="112.21" y="192.42" class="st6" width="7.2" height="7.8"/>
			<rect x="97.2" y="208.67" class="st6" width="7.2" height="7.8"/>
			<rect x="112.21" y="208.67" class="st6" width="7.2" height="7.8"/>
			<rect x="128.41" y="208.67" class="st6" width="7.2" height="7.8"/>
			<rect x="128.41" y="224.93" class="st6" width="7.2" height="7.8"/>
			<rect x="128.41" y="241.19" class="st6" width="7.2" height="7.8"/>
			<rect x="128.41" y="257.45" class="st6" width="7.2" height="7.8"/>
			<rect x="128.41" y="273.71" class="st6" width="7.2" height="7.8"/>
			<rect x="128.41" y="289.97" class="st6" width="7.2" height="7.8"/>
			<rect x="97.2" y="224.93" class="st6" width="7.2" height="7.8"/>
			<rect x="112.21" y="224.93" class="st6" width="7.2" height="7.8"/>
			<rect x="97.2" y="241.19" class="st6" width="7.2" height="7.8"/>
			<rect x="112.21" y="241.19" class="st6" width="7.2" height="7.8"/>
			<rect x="97.2" y="257.45" class="st6" width="7.2" height="7.8"/>
			<rect x="112.21" y="257.45" class="st6" width="7.2" height="7.8"/>
			<rect x="97.2" y="273.71" class="st6" width="7.2" height="7.8"/>
			<rect x="64.19" y="282.82" class="st6" width="7.2" height="7.8"/>
			<rect x="168.02" y="265.26" class="st6" width="7.2" height="7.8"/>
			<rect x="182.43" y="265.26" class="st6" width="7.2" height="7.8"/>
			<rect x="333.56" y="139.09" class="st6" width="7.2" height="7.8"/>
			<rect x="342.57" y="139.09" class="st6" width="7.2" height="7.8"/>
			<rect x="333.56" y="155.35" class="st6" width="7.2" height="7.8"/>
			<rect x="342.57" y="155.35" class="st6" width="7.2" height="7.8"/>
			<rect x="333.56" y="171.6" class="st6" width="7.2" height="7.8"/>
			<rect x="342.57" y="171.6" class="st6" width="7.2" height="7.8"/>
			<rect x="333.56" y="187.86" class="st6" width="7.2" height="7.8"/>
			<rect x="342.57" y="187.86" class="st6" width="7.2" height="7.8"/>
			<rect x="333.56" y="204.12" class="st6" width="7.2" height="7.8"/>
			<rect x="342.57" y="204.12" class="st6" width="7.2" height="7.8"/>
			<rect x="272.35" y="204.12" class="st6" width="7.2" height="7.8"/>
			<rect x="287.95" y="204.12" class="st6" width="7.2" height="7.8"/>
			<rect x="303.56" y="204.12" class="st6" width="7.2" height="7.8"/>
			<rect x="272.35" y="239.24" class="st6" width="7.2" height="7.8"/>
			<rect x="287.95" y="239.24" class="st6" width="7.2" height="7.8"/>
			<rect x="303.56" y="239.24" class="st6" width="7.2" height="7.8"/>
			<rect x="272.35" y="274.36" class="st6" width="7.2" height="7.8"/>
			<rect x="287.95" y="274.36" class="st6" width="7.2" height="7.8"/>
			<rect x="303.56" y="274.36" class="st6" width="7.2" height="7.8"/>
			<rect x="333.56" y="220.38" class="st6" width="7.2" height="7.8"/>
			<rect x="342.57" y="220.38" class="st6" width="7.2" height="7.8"/>
			<rect x="333.56" y="236.64" class="st6" width="7.2" height="7.8"/>
			<rect x="342.57" y="236.64" class="st6" width="7.2" height="7.8"/>
			<rect x="333.56" y="252.9" class="st6" width="7.2" height="7.8"/>
			<rect x="342.57" y="252.9" class="st6" width="7.2" height="7.8"/>
			<rect x="357.57" y="236.64" class="st6" width="7.2" height="7.8"/>
			<rect x="374.38" y="236.64" class="st6" width="7.2" height="7.8"/>
			<rect x="357.57" y="252.25" class="st6" width="7.2" height="7.8"/>
			<rect x="374.38" y="252.25" class="st6" width="7.2" height="7.8"/>
			<rect x="357.57" y="267.86" class="st6" width="7.2" height="7.8"/>
			<rect x="374.38" y="267.86" class="st6" width="7.2" height="7.8"/>
			<rect x="357.57" y="283.47" class="st6" width="7.2" height="7.8"/>
			<rect x="374.38" y="283.47" class="st6" width="7.2" height="7.8"/>
			<rect x="333.56" y="269.16" class="st6" width="7.2" height="7.8"/>
			<rect x="342.57" y="269.16" class="st6" width="7.2" height="7.8"/>
			<rect x="333.56" y="285.42" class="st6" width="7.2" height="7.8"/>
			<rect x="342.57" y="285.42" class="st6" width="7.2" height="7.8"/>
			<rect x="112.21" y="273.71" class="st6" width="7.2" height="7.8"/>
			<rect x="97.2" y="289.97" class="st6" width="7.2" height="7.8"/>
			<rect x="112.21" y="289.97" class="st6" width="7.2" height="7.8"/>
			<rect x="97.2" y="306.23" class="st6" width="7.2" height="7.8"/>
			<rect x="112.21" y="306.23" class="st6" width="7.2" height="7.8"/>
			<rect x="97.2" y="322.49" class="st6" width="7.2" height="7.8"/>
			<rect x="112.21" y="322.49" class="st6" width="7.2" height="7.8"/>
		</g>
		<use xlink:href="#XMLID_3_"  style="overflow:visible;fill:none;stroke:#263238;stroke-miterlimit:10;"/>
	</g>
</g>
<g id="Lamp">
	<g>
		<rect x="417.13" y="174.04" class="st3" width="4.87" height="224.85"/>
		<rect x="401.49" y="174.04" class="st7" width="36.15" height="65.2"/>
		<g>
			<line class="st8" x1="405.47" y1="233.85" x2="405.47" y2="235.7"/>
			<line class="st8" x1="405.47" y1="176.4" x2="405.47" y2="229.44"/>
			<line class="st8" x1="409.15" y1="184.87" x2="409.15" y2="235.7"/>
			<line class="st8" x1="409.15" y1="176.4" x2="409.15" y2="180.46"/>
			<line class="st8" x1="415.78" y1="176.4" x2="415.78" y2="235.7"/>
		</g>
		<rect x="404.94" y="397.06" class="st3" width="29.86" height="2.44"/>
	</g>
</g>
<g id="Character">
	<path id="XMLID_2_" class="st9" d="M177.83,311.32H60.31V84.25h117.53V311.32z M306.24,84.25H188.72v227.07h117.53V84.25z
		 M434.65,84.25H317.13v227.07h117.53V84.25z"/>
	<g>
		<polygon class="st10" points="353.76,416.84 139.24,416.84 160.69,400.69 332.31,400.69 		"/>
		<g>
			<g>
				<defs>
					<path id="XMLID_7_" d="M215.69,398.52c0,0-7.48-6.88-6.28-15.26c1.2-8.38,1.5-14.06,1.5-14.06l-0.6-16.46
						c0,0-5.09-9.57-6.58-20.94c-1.5-11.37-6.28-24.83-6.28-24.83s-1.43-0.92-2.39-2.2c-0.96-1.28-2.66-2.02-4.15-2.98
						c-1.49-0.96-3.73-0.96-4.05-1.49c-0.32-0.53-0.53-1.28,0.43-1.28c0.96,0,3.62-0.32,4.26,0.21c0.64,0.53,2.66,0,2.66,0
						l-1.07-15.45c0,0,0.32-0.85,1.17,0c0.85,0.85,1.92,8.95,1.92,8.95l1.39-0.11l0.64-9.91c0,0,0.43-0.85,1.28,0l1.07,9.91
						l2.34-8.52c0,0,0.85-0.96,1.28,0.32c0.43,1.28-0.96,9.16-0.96,9.16l4.15-5.33c0,0,0.75-0.11,0.75,0.43
						c0,0.53-3.3,7.14-3.3,7.14s0.32,7.78,0.11,8.42c-0.21,0.64-0.21,2.66,0.75,5.11c0.96,2.45,7.67,16.73,10.55,23.76
						c2.88,7.03,5.43,14.81,5.75,17.26c0.32,2.45,1.7,14.91,1.28,19.18c-0.43,4.26-0.11,11.93,2.02,17.05"/>
				</defs>
				<use xlink:href="#XMLID_7_"  style="overflow:visible;fill:#FFFFFF;"/>
				<clipPath id="XMLID_10_">
					<use xlink:href="#XMLID_7_"  style="overflow:visible;"/>
				</clipPath>
				<path class="st11" d="M215.69,398.52c0,0-7.48-6.88-6.28-15.26c1.2-8.38,1.5-14.06,1.5-14.06l-0.6-16.46
					c0,0-5.09-9.57-6.58-20.94c-1.5-11.37-6.28-24.83-6.28-24.83s-1.43-0.92-2.39-2.2c-0.96-1.28-2.66-2.02-4.15-2.98
					c-1.49-0.96-3.73-0.96-4.05-1.49c-0.32-0.53-0.53-1.28,0.43-1.28c0.96,0,3.62-0.32,4.26,0.21c0.64,0.53,2.66,0,2.66,0
					l-1.07-15.45c0,0,0.32-0.85,1.17,0c0.85,0.85,1.92,8.95,1.92,8.95l1.39-0.11l0.64-9.91c0,0,0.43-0.85,1.28,0l1.07,9.91
					l2.34-8.52c0,0,0.85-0.96,1.28,0.32c0.43,1.28-0.96,9.16-0.96,9.16l4.15-5.33c0,0,0.75-0.11,0.75,0.43c0,0.53-3.3,7.14-3.3,7.14
					s0.32,7.78,0.11,8.42c-0.21,0.64-0.21,2.66,0.75,5.11c0.96,2.45,7.67,16.73,10.55,23.76c2.88,7.03,5.43,14.81,5.75,17.26
					c0.32,2.45,1.7,14.91,1.28,19.18c-0.43,4.26-0.11,11.93,2.02,17.05"/>
				
					<use xlink:href="#XMLID_7_"  style="overflow:visible;fill:none;stroke:#263238;stroke-linecap:round;stroke-linejoin:round;stroke-miterlimit:10;"/>
			</g>
			<path class="st7" d="M178.46,377.96c0,0-8.17-0.56-11.27,7.61c-3.1,8.17,2.25,15.5-1.13,17.75c-3.38,2.25-14.65-0.56-12.68,2.82
				c1.97,3.38,25.08,7.89,27.61-0.56c2.54-8.45-6.2-17.19-5.07-22.54c1.13-5.35,4.79-4.23,4.79-4.23L178.46,377.96z"/>
			<g>
				<defs>
					<path id="XMLID_6_" d="M214,382.58l-4.2-7.2c1.6-1.4,3-3.6,1.4-5.4c-0.58-0.65-2.28-2.13-4.2-3.74l0.18-0.12
						c0,0,0.35-1.99,0.17-3.07c-0.17-1.08-0.69-1.44-2.77-0.9c-0.9,0.24-1.76,0.19-2.46,0.08c-1.47-1.2-2.52-2.04-2.52-2.04
						s-5.8-4.4-14.2-0.8c-8.4,3.6-9.6,14.99-5.6,20.59c4,5.6,12.2,4.8,14.6,4.4s4.6-1.2,5.4-0.4c0.8,0.8,7,9.2,7,9.2"/>
				</defs>
				<use xlink:href="#XMLID_6_"  style="overflow:visible;fill:#FFFFFF;"/>
				<clipPath id="XMLID_11_">
					<use xlink:href="#XMLID_6_"  style="overflow:visible;"/>
				</clipPath>
				<path class="st12" d="M209.8,375.38c1.15-1.01,2.2-2.44,2.09-3.83c-4.44,0.95-9.33,1.59-11.23,0.42
					c-3.85-2.37-10.95-9.47-17.75-5.33c-5.2,3.16-0.56,12.7,1.92,17.04c3.8,1.4,7.98,0.96,9.58,0.7c2.4-0.4,4.6-1.2,5.4-0.4
					c0.8,0.8,7,9.2,7,9.2l4.77-7.02c0.71-1.37,1.43-2.74,2.14-4.08L209.8,375.38z"/>
				
					<use xlink:href="#XMLID_6_"  style="overflow:visible;fill:none;stroke:#263238;stroke-linecap:round;stroke-linejoin:round;stroke-miterlimit:10;"/>
			</g>
			<path class="st7" d="M194.41,377.18c-1-0.6-0.2-3.2-0.8-6.2c-0.6-3-3-3.6-4-7c-0.67-2.28,0.46-4.65,1.28-5.96
				c-1.65,0.12-3.49,0.51-5.47,1.37c-8.4,3.6-9.6,14.99-5.6,20.59c4,5.6,12.2,4.8,14.6,4.4c1.9-0.32,3.67-0.87,4.72-0.7
				c0.18-0.67,0.28-1.32,0.28-1.9C199.41,378.38,195.41,377.78,194.41,377.18z"/>
			<path class="st3" d="M195.15,374.6c0,0-3.68-1.82-4.98,1.49c-1.31,3.31,3.06,3.26,5.55,2.51c2.49-0.74,2.63-3.08,2.63-3.08"/>
			<path class="st3" d="M252.68,277.35c0,0-2.14-5.06-5.09-9.58c-2.95-4.52-3.93-6.28-7.66-10.8c-3.73-4.52-5.7-5.3-3.54-6.48
				c2.16-1.18,5.11-2.36,10.02,0.39c4.91,2.75,6.68,6.87,8.44,9.23c1.77,2.36,4.32,0.98,4.12,4.52c-0.2,3.54-1.57,6.68-1.57,6.68
				l1.77,3.93l-6.09,3.54L252.68,277.35z"/>
			<path class="st2" d="M243.27,260.7c0,0,2.16,2.16,4.52,2.75c2.36,0.59,1.77,2.95,4.91,5.11"/>
			<path class="st7" d="M304.67,379.27c0,0-0.04-0.1-0.11-0.29c-0.02-0.04-0.03-0.09-0.05-0.13c-1.19-3.2-9.07-24.22-12.54-29.66
				c-3.77-5.9-14.16-16.72-14.16-16.72s2.77-13.83,0.5-22.59c-1.74-6.71-14.99-28.86-19.53-35.63c-1.71,0.03-3.8,0.22-6.1,3.1
				c2.67,7.62,7.33,20.27,8.42,31.34c1.43,14.41,3.91,29.44,4.98,31.12c1.08,1.68,1.15,16.87,5.52,26.84
				c2.85,6.49,6.65,12.33,9.09,15.91c0.04,0.36,0.39,3.61,0.2,4.18c-0.2,0.6-5.22,1.21-6.23,5.83c-1,4.62-1.81,12.86,8.03,14.86
				c9.84,2.01,17.68-0.8,20.69-10.65C306.41,386.95,305.75,384.05,304.67,379.27z"/>
			<g>
				<defs>
					<path id="XMLID_5_" d="M207.75,383.17c-3.84,2.96-3.59,9.02-1.55,13c3.8,7.4,14.6,11.2,24.39,12.2c9.8,1,46.98,3,60.38,0.4
						c13.4-2.6,14.8-14.8,14.8-14.8s19.51-16.86,23.71-22.46c4.2-5.6,10.68-19.13,10.68-19.13s17.82-4.09,25.22-9.29
						c7.4-5.2,25.56-31.49,25.56-31.49s4.6,2.6,6.6,0.4c2-2.2,3.6-7,5.4-8.2c1.8-1.2,5.8-3.6,6.8-8c1-4.4,0.2-9-1.2-8.4
						c-1.4,0.6-4,4.6-8,7c-4,2.4-8.8,8.6-13.2,11.6c-4.4,3-17.79,15.99-30.79,22.39c-13,6.4-26.19,14-27.39,15.59
						c-1.2,1.6-15.39,7-23.19,14.6c-7.8,7.6-13.4,16.79-14.2,17.59c-0.8,0.8-4.6,3.2-9.4,4.4c-4.8,1.2-6.6,3.2-15.19,4
						c-8.6,0.8-20.39-1-20.39-1s-1.6-7.2-7-8.2c-5.4-1-10.2,1-13.4,3.2c-3.2,2.2-4.6,2.4-6.6,2.4c-3.78,0-8.33-0.3-11.63,1.9
						C208.02,382.97,207.88,383.07,207.75,383.17z"/>
				</defs>
				<use xlink:href="#XMLID_5_"  style="overflow:visible;fill:#FFFFFF;"/>
				<clipPath id="XMLID_12_">
					<use xlink:href="#XMLID_5_"  style="overflow:visible;"/>
				</clipPath>
				<path class="st13" d="M300.07,404.43c-8.48-5.05-43.25-7.34-51.98-7.34c-10.64,0-12.46-7.41-17.88-7.66s-6.32-1.24-6.32-1.24
					s-1.9-1.33-2.79-7.27c-0.42,0.04-0.85,0.06-1.3,0.06c-3.38,0-7.36-0.23-10.53,1.28c0.05,1.28,0.08,2.55,0.08,3.76
					c0,7.56-0.82,11.81,9.39,19.7c3.76,1.38,7.89,2.25,11.85,2.65c9.8,1,46.98,3,60.38,0.4
					C294.99,407.99,297.92,406.34,300.07,404.43z"/>
				
					<use xlink:href="#XMLID_5_"  style="overflow:visible;fill:none;stroke:#263238;stroke-linecap:round;stroke-linejoin:round;stroke-miterlimit:10;"/>
			</g>
			<path class="st7" d="M229.99,408.3c0.2,0.02,0.41,0.05,0.61,0.07c2.78,0.28,7.77,0.65,13.79,0.96
				c-0.91-1.96-2.98-7.05-2.19-11.16c0.95-4.93,2.79-7.53,4.51-14.93c-0.39-1.42-2.21-6.99-6.91-7.87c-5.4-1-10.2,1-13.4,3.2
				c-3.2,2.2-4.6,2.4-6.6,2.4c-3.78,0-8.33-0.3-11.63,1.9c-0.14,0.1-0.28,0.19-0.42,0.3c-1.6,1.24-2.48,3.01-2.83,4.95
				c2.37-1.85,7.17-5.17,11.88-5.74l4.6-0.4c0,0-0.4,4.2,3.4,7.2c3.8,3,7.8,3.6,7.8,3.6s1,8.8-1,12.4
				C230.75,406.68,230.27,407.66,229.99,408.3z"/>
			<g>
				<path class="st7" d="M382.94,309.5c-6.2,5.18-16.41,13.98-26.39,18.9c-13,6.4-26.19,14-27.39,15.59c-1.2,1.6-15.39,7-23.19,14.6
					c-7.8,7.6-13.4,16.79-14.2,17.59c-0.8,0.8-4.6,3.2-9.4,4.4c-4.17,1.04-6.08,2.69-12.14,3.62v25.84
					c8.37-0.02,16.03-0.36,20.74-1.28c13.4-2.6,14.8-14.8,14.8-14.8s19.51-16.86,23.71-22.46c4.2-5.6,10.68-19.13,10.68-19.13
					s17.82-4.09,25.22-9.29c5.68-3.99,18.49-21.58,23.24-28.2C387.99,313.3,386.45,310.65,382.94,309.5z"/>
				<path class="st8" d="M282.38,380.58c0,0,9.44-2.6,15.51-12.99"/>
			</g>
			<g>
				<defs>
					
						<ellipse id="XMLID_1_" transform="matrix(0.7071 -0.7071 0.7071 0.7071 -147.8875 227.1332)" cx="200.23" cy="292.08" rx="48.92" ry="48.92"/>
				</defs>
				<use xlink:href="#XMLID_1_"  style="overflow:visible;fill:#C6FF00;"/>
				<clipPath id="XMLID_13_">
					<use xlink:href="#XMLID_1_"  style="overflow:visible;"/>
				</clipPath>
				<g class="st14">
					<path class="st6" d="M224.86,249.82c0.37,0.21,0.73,0.43,1.09,0.65c2.52,5.89,3.92,12.38,3.92,19.2
						c0,27.02-21.9,48.92-48.92,48.92c-9.44,0-18.24-2.68-25.72-7.31c7.46,17.47,24.8,29.72,45,29.72
						c27.02,0,48.92-21.9,48.92-48.92C249.15,274.05,239.38,258.31,224.86,249.82z"/>
				</g>
				<path class="st15" d="M195,259.69c1.62,4.31-1.39,9.43-6.73,11.44c-5.34,2.01-10.99,0.15-12.61-4.15
					c-1.62-4.31,1.39-9.43,6.73-11.44C187.73,253.52,193.38,255.38,195,259.69z"/>
				
					<use xlink:href="#XMLID_1_"  style="overflow:visible;fill:none;stroke:#263238;stroke-linecap:round;stroke-linejoin:round;stroke-miterlimit:10;"/>
			</g>
			<g>
				<defs>
					<path id="XMLID_4_" d="M211,399.04c0,0-7.48-6.88-6.28-15.26c1.2-8.38,1.5-14.06,1.5-14.06l-0.6-16.46
						c0,0-5.09-9.57-6.58-20.94c-1.5-11.37-6.28-24.83-6.28-24.83s-1.43-0.92-2.39-2.2c-0.96-1.28-2.66-2.02-4.15-2.98
						c-1.49-0.96-3.73-0.96-4.05-1.49c-0.32-0.53-0.53-1.28,0.43-1.28s3.62-0.32,4.26,0.21c0.64,0.53,2.66,0,2.66,0l-1.07-15.45
						c0,0,0.32-0.85,1.17,0c0.85,0.85,1.92,8.95,1.92,8.95l1.39-0.11l0.64-9.91c0,0,0.43-0.85,1.28,0l1.07,9.91l2.34-8.52
						c0,0,0.85-0.96,1.28,0.32s-0.96,9.16-0.96,9.16l4.15-5.33c0,0,0.75-0.11,0.75,0.43c0,0.53-3.3,7.14-3.3,7.14
						s0.32,7.78,0.11,8.42c-0.21,0.64-0.21,2.66,0.75,5.11c0.96,2.45,7.67,16.73,10.55,23.76c2.88,7.03,5.43,14.81,5.75,17.26
						c0.32,2.45,1.7,14.91,1.28,19.18c-0.43,4.26-0.11,11.93,2.02,17.05"/>
				</defs>
				<use xlink:href="#XMLID_4_"  style="overflow:visible;fill:#FFFFFF;"/>
				<clipPath id="XMLID_14_">
					<use xlink:href="#XMLID_4_"  style="overflow:visible;"/>
				</clipPath>
				<path class="st16" d="M211.52,398.4l9.1-11.28c-2.13-5.11-2.45-12.78-2.02-17.05c0.43-4.26-0.96-16.73-1.28-19.18
					c-0.32-2.45-2.88-10.23-5.75-17.26c-0.66-1.62-1.53-3.62-2.48-5.77c1.66,5.23,4.87,15.6,5.81,20.27
					c1.28,6.39-4.26,8.09-5.53,14.47c-1.28,6.39,0,15.75,0,23.41C209.36,390.9,209.01,394.41,211.52,398.4z"/>
				
					<use xlink:href="#XMLID_4_"  style="overflow:visible;fill:none;stroke:#263238;stroke-linecap:round;stroke-linejoin:round;stroke-miterlimit:10;"/>
			</g>
		</g>
	</g>
</g>
</svg>
