<?xml version="1.0" encoding="utf-8"?>
<!-- Generator: Adobe Illustrator 24.0.1, SVG Export Plug-In . SVG Version: 6.00 Build 0)  -->
<svg version="1.1" id="Livello_1" xmlns="http://www.w3.org/2000/svg" xmlns:xlink="http://www.w3.org/1999/xlink" x="0px" y="0px"
	 viewBox="0 0 573.7 702.4" style="enable-background:new 0 0 573.7 702.4;" xml:space="preserve">
<style type="text/css">
	.st0{fill:#AAFF00;}
	.st1{fill:#FFFFFF;}
</style>
<path class="st0" d="M286.9,26.3c-62.7,0-121.7,24.4-166,68.8c-46,46-72.1,101.9-75.4,161.7c-3.5,62,17.6,128.7,61,192.8
	c40.3,59.6,152.4,198.7,180.4,233.3c28-34.6,140.1-173.7,180.4-233.3l6.8,4.6l-6.8-4.6c43.4-64.1,64.5-130.8,61-192.8
	C524.9,197,498.9,141,452.9,95.1C408.5,50.7,349.6,26.3,286.9,26.3z"/>
<path class="st1" d="M286.9,414.4c-85.2,0-154.5-69.3-154.5-154.5s69.3-154.5,154.5-154.5s154.5,69.3,154.5,154.5
	S372,414.4,286.9,414.4z M286.9,161c-54.5,0-98.9,44.4-98.9,98.9s44.4,98.9,98.9,98.9s98.9-44.4,98.9-98.9S341.4,161,286.9,161z"/>
</svg>
