<?xml version="1.0" encoding="utf-8"?>
<!-- Generator: Adobe Illustrator 24.0.1, SVG Export Plug-In . SVG Version: 6.00 Build 0)  -->
<svg version="1.1" id="Layer_1" xmlns="http://www.w3.org/2000/svg" xmlns:xlink="http://www.w3.org/1999/xlink" x="0px" y="0px"
	 viewBox="0 0 595.3 533.7" style="enable-background:new 0 0 595.3 533.7;" xml:space="preserve">
<style type="text/css">
	.st0{fill:#E04726;}
	.st1{fill:#216869;}
	.st2{fill:#9FF7AA;}
	.st3{fill:#9FF7AA;stroke:#216869;stroke-width:3;stroke-miterlimit:10;}
	.st4{fill:none;}
	.st5{fill:#9FF7AA;stroke:#216869;stroke-miterlimit:10;}
</style>
<g>
	<path class="st0" d="M899.4,1464.3c-3-15.7-0.3-29.8,8-42.1c7.8-11.5,19.5-19.8,31.2-25.7c-19,3.1-36.7,10.2-52.1,20.4l-1.9,1.6
		c-0.2,0.2-16.7,15.1-4.3,57.8C886.2,1472.2,892.5,1468.3,899.4,1464.3z"/>
	<path class="st0" d="M864.3,1435.1c-11,11.2-20,24.3-26.6,38.8c1.6,0.6,3.1,1.3,4.5,2.2c6.2,3.8,11.1,10.1,14.5,18.8
		c4-3.7,8.4-7.4,13.2-11.1C863.1,1462.5,862.5,1446.6,864.3,1435.1z"/>
	<path class="st0" d="M836,1486.6c-0.9-0.6-1.8-1-2.7-1.3c-4.8,13.9-7.5,28.8-7.5,44.4c0,1.6,0,3.1,0.1,4.7
		c4.5-8.9,11.3-19.1,21.3-29.9C844.6,1495.7,840.9,1489.7,836,1486.6z"/>
	<path class="st0" d="M850.3,1519.2c-8.3,10-13.4,19.2-16.6,26.9c-0.8,1.9-1.5,3.8-2.1,5.8H855c-0.3-2-0.5-4-0.8-6
		C852.9,1536.6,851.8,1527.7,850.3,1519.2z"/>
	<path class="st0" d="M874.3,1495.9c-5.1,4.1-9.7,8.2-13.8,12.2c2.4,11.4,4,23.5,5.7,36.2c0.3,2.5,0.7,5.1,1,7.6h36.4
		c-6.8-10.8-13.3-22.2-19.4-34.1C880.3,1510,877,1502.7,874.3,1495.9z"/>
	<path class="st0" d="M1078.6,1464c-6.8-3.4-23.6-10.9-47.1-14.6c-27.6-4.4-70.2-4.1-117.7,20.8c7.4,16.9,27.3,23.7,55.9,33.3
		c27.4,9.3,63.5,21.5,103.1,48.3h21c1.2-7.3,1.8-14.7,1.8-22.3C1095.6,1505.8,1089.4,1483.4,1078.6,1464z"/>
	<path class="st0" d="M903.1,1476.2c-6.8,4-13.1,8-18.7,12c2.7,7.3,6.2,15.3,10.7,24c7,13.8,14.8,27.1,23,39.6h132
		c-32.1-19.1-61.3-29-84.3-36.8C935.5,1504.8,912.6,1497.1,903.1,1476.2z"/>
	<path class="st0" d="M917.5,1429c-5.8,8.5-8,18.3-6.8,29.1c49.5-25.2,94-25.3,123-20.7c12.9,2.1,23.9,5.1,32.6,8.2
		c-21.2-26.7-52.4-45.2-87.8-49.8C970.3,1397.4,933.3,1405.7,917.5,1429z"/>
</g>
<polygon class="st1" points="111.5,95.9 111.5,273.5 117.3,344.6 125.8,370.6 164.5,433 219,469.9 245.6,475.9 279.9,495.2 
	303.1,508.1 306.2,514.6 329.5,497.6 400.1,460.1 460,418.3 480.2,387.3 498.5,350 505.6,302.6 505.6,204.5 509.7,90.1 504.6,76.8 
	446.7,53 336.8,29.8 285,29.8 216.6,38 165.2,53.7 117.3,74.4 "/>
<g>
	<path class="st2" d="M485.1,101.8c0,0-59-46-177.2-46s-177.2,46-177.2,46v152.4c0,187.8,122.7,178.2,177.3,228.1
		c54.6-49.9,177-40.3,177-228.2L485.1,101.8z"/>
	<g>
		<path class="st3" d="M308,525.9l-6.6-6c-15.2-13.9-36.3-23.8-58.6-34.3c-64.6-30.4-145-68.3-145-230.7v-177l3.8-2.9
			c2.8-2.2,70.9-54,206.3-54s203.4,51.8,206.3,54l3.8,2.9l-0.1,176.9c0,162.5-80.2,200.3-144.7,230.8
			c-22.3,10.5-43.3,20.4-58.5,34.3L308,525.9z M117.3,87.7v167.2c0,150.1,71.1,183.5,133.8,213.1c20.8,9.8,40.6,19.1,56.9,32
			c16.3-12.9,36-22.2,56.8-32c62.6-29.5,133.6-63,133.6-213.1l0.1-167.1C482.9,77.5,418.9,40.5,308,40.5
			C196.5,40.4,132.9,77.4,117.3,87.7z"/>
	</g>
	<g>
		<polygon class="st4" points="130.7,188.4 130.7,245.9 257.6,262.5 		"/>
		<path class="st4" d="M130.7,252.5v1.7c0,17.8,1.1,33.9,3.2,48.4l121-22.8L130.7,252.5z"/>
		<path class="st4" d="M131.9,100.9c-0.8,0.6-1.3,0.9-1.3,0.9V183l134.3,63.8L131.9,100.9z"/>
		<path class="st4" d="M198.4,70.8c-37.5,11.1-59.4,25.1-65.8,29.6l143.9,133.7L198.4,70.8z"/>
		<path class="st4" d="M264,58.1c-24.4,2.5-45.5,6.9-63.2,12.1L291,225.6L264,58.1z"/>
		<path class="st4" d="M183.1,406.9c11.5,10.9,24.2,19.3,37.1,26.6l55.1-107.4L183.1,406.9z"/>
		<path class="st4" d="M305.6,339.3l-32.7,120.3c13.2,6.6,25.2,13.7,35.1,22.7c3.3-3,6.9-5.8,10.6-8.5L305.6,339.3z"/>
		<path class="st4" d="M151,362.7c7.5,15.9,16.8,28.7,27.1,39.4l86-88.9L151,362.7z"/>
		<path class="st4" d="M134.9,309.3c3,18.1,7.6,33.6,13.3,47.1l108.9-59.3L134.9,309.3z"/>
		<path class="st4" d="M226.5,437c13.5,7.2,27.2,13.2,40,19.5l23-121.3L226.5,437z"/>
		<path class="st4" d="M417.1,419.8c11.7-8.5,22.6-18.7,32.2-31.6l-98.4-66.9L417.1,419.8z"/>
		<path class="st4" d="M453.5,382.3c7.9-11.7,14.7-25.5,19.9-42l-112.9-33.4L453.5,382.3z"/>
		<path class="st4" d="M475.5,333.3c3.8-13.6,6.6-29,8.1-46.4l-118,3.3L475.5,333.3z"/>
		<path class="st4" d="M373,445.2c12.7-6.1,25.7-12.8,38-21.1l-73.3-92L373,445.2z"/>
		<path class="st4" d="M484.2,279.7c0.5-8.1,0.8-16.6,0.8-25.5v-24l-119.2,42.6L484.2,279.7z"/>
		<path class="st4" d="M324.6,469.9c12.5-7.9,26.9-14.4,41.8-21.5l-44.1-110.1L324.6,469.9z"/>
		<polygon class="st4" points="485,223.3 485,161.4 361.2,255.8 		"/>
		<path class="st4" d="M485,156.4v-54.6c0,0-7.9-6.1-23.6-13.9L352,241.2L485,156.4z"/>
		<path class="st4" d="M392.7,64.5c-17.8-3.9-38.3-6.8-61.3-8l-7.6,166.9L392.7,64.5z"/>
		<path class="st4" d="M327.8,56.3c-6.4-0.3-13.1-0.5-19.9-0.5c-14.4,0-27.9,0.7-40.5,1.9l39.8,164.1L327.8,56.3z"/>
		<path class="st4" d="M459.9,87.1c-14.8-7.2-36.3-15.6-64.3-22L339.1,230L459.9,87.1z"/>
		<path class="st1" d="M370.4,292.1l-4.8-1.9l118-3.3c0.2-2.4,0.4-4.8,0.6-7.3l-118.3-7L485.1,230v-6.8l-123.8,32.5l123.9-94.5v-5
			l-133,84.8L461.5,87.9c-0.5-0.3-1-0.5-1.6-0.8l-120.7,143l56.5-164.9c-1-0.2-2-0.4-3-0.7l-68.9,158.9l7.6-166.9
			c-1.2-0.1-2.4-0.1-3.6-0.2l-20.5,165.6L267.4,57.7c-1.1,0.1-2.3,0.2-3.4,0.3l27,167.4L200.8,70.1c-0.8,0.2-1.6,0.5-2.4,0.7
			l78.1,163.3L132.7,100.4c-0.3,0.2-0.5,0.4-0.7,0.5l133.1,145.9L130.8,183v5.4l126.9,74l-127-16.5v6.6l124.2,27.3l-121,22.8
			c0.3,2.3,0.7,4.6,1,6.8l122.2-12.2"/>
	</g>
	<g>
		<path class="st5" d="M308,488.9l-3.3-3c-13.9-12.7-32.8-21.6-52.8-31c-56.2-26.5-126.1-59.4-126.1-200.7V99.4l1.9-1.5
			c2.5-1.9,61.7-47,180.2-47s177.7,45.1,180.2,47l1.9,1.5l-0.1,154.7c0,141.3-69.8,174.3-125.9,200.8c-20,9.4-38.8,18.3-52.7,31
			L308,488.9z M135.6,104.3v149.9c0,135.1,64,165.3,120.5,191.9c19.2,9,37.4,17.6,51.9,29.8c14.5-12.1,32.7-20.7,51.8-29.7
			c56.4-26.6,120.3-56.8,120.3-192l0.1-149.8c-4.8-3.3-18.8-12.3-41.6-21.1c-26.5-10.4-70.7-22.6-130.7-22.6
			C204.1,60.7,146.4,96.8,135.6,104.3z"/>
	</g>
	<polygon class="st3" points="564.8,340.7 51,340.7 81.4,293.3 51,246.7 564.8,246.7 539.3,293.3 	"/>
	<g>
		<path class="st1" d="M139.6,277.1h10.7v26.2h16.8v8.6h-27.5V277.1z"/>
		<path class="st1" d="M174.9,277.1h10.8v34.8h-10.8V277.1z"/>
		<path class="st1" d="M213.3,299.3V292h16.6v14.8c-3.2,2.2-6,3.6-8.4,4.4c-2.4,0.8-5.3,1.2-8.7,1.2c-4.1,0-7.5-0.7-10.1-2.1
			s-4.6-3.5-6-6.3c-1.4-2.8-2.1-6-2.1-9.6c0-3.8,0.8-7.1,2.3-9.9s3.9-4.9,6.9-6.4c2.4-1.1,5.5-1.7,9.5-1.7c3.8,0,6.7,0.3,8.6,1
			c1.9,0.7,3.5,1.8,4.7,3.2c1.3,1.5,2.2,3.3,2.8,5.6l-10.4,1.9c-0.4-1.3-1.2-2.3-2.2-3c-1-0.7-2.3-1-3.9-1c-2.4,0-4.2,0.8-5.6,2.5
			s-2.1,4.2-2.1,7.8c0,3.8,0.7,6.5,2.1,8.1c1.4,1.6,3.4,2.4,5.9,2.4c1.2,0,2.3-0.2,3.4-0.5c1.1-0.3,2.3-0.9,3.7-1.8v-3.3H213.3z"/>
		<path class="st1" d="M238.7,277.1h10.7v12.2h11.7v-12.2H272v34.8h-10.8v-14.1h-11.7v14.1h-10.7V277.1z"/>
		<path class="st1" d="M279.1,277.1h32.7v8.6h-11v26.2h-10.7v-26.2h-11V277.1z"/>
		<path class="st1" d="M335.3,277.1h32.7v8.6h-11v26.2h-10.7v-26.2h-11V277.1z"/>
		<path class="st1" d="M375.2,277.1H404v7.4h-18v5.5h16.7v7.1H386v6.9h18.5v7.9h-29.3V277.1z"/>
		<path class="st1" d="M434.1,306.1h-12.2l-1.7,5.7h-11l13.1-34.8H434l13.1,34.8h-11.3L434.1,306.1z M431.9,298.6l-3.8-12.5
			l-3.8,12.5H431.9z"/>
		<path class="st1" d="M452.8,277.1h14.1l5.4,21.2l5.4-21.2h14.1v34.8h-8.8v-26.5l-6.8,26.5h-8l-6.8-26.5v26.5h-8.8V277.1z"/>
	</g>
</g>
<polygon class="st1" points="191.9,350 197,365.6 213.5,365.7 200.2,375.5 205.2,391.1 191.9,381.5 178.5,391.1 183.5,375.5 
	170.3,365.7 186.7,365.6 "/>
<polygon class="st1" points="249.9,350 255,365.6 271.5,365.7 258.2,375.5 263.2,391.1 249.9,381.5 236.5,391.1 241.5,375.5 
	228.3,365.7 244.7,365.6 "/>
<polygon class="st1" points="307.9,350 313,365.6 329.5,365.7 316.2,375.5 321.2,391.1 307.9,381.5 294.5,391.1 299.5,375.5 
	286.3,365.7 302.7,365.6 "/>
<polygon class="st1" points="365.9,350 371,365.6 387.5,365.7 374.2,375.5 379.2,391.1 365.9,381.5 352.5,391.1 357.5,375.5 
	344.3,365.7 360.7,365.6 "/>
<polygon class="st1" points="423.9,350 429,365.6 445.5,365.7 432.2,375.5 437.2,391.1 423.9,381.5 410.5,391.1 415.5,375.5 
	402.3,365.7 418.7,365.6 "/>
<polyline class="st1" points="228.3,443.4 228.3,402 270.6,402 270.6,463.9 "/>
<path class="st1" d="M309.4,487.6c4.2-5.1,19.6-14.8,19.6-14.8V402h-42.3v70.7c0,0,13.7,8.3,19.8,14.9l1.4,1.3L309.4,487.6z"/>
<polyline class="st1" points="345.2,464 345.2,402 387.5,402 387.5,443.4 "/>
</svg>
