<?xml version="1.0" encoding="utf-8"?>
<!-- Generator: Adobe Illustrator 26.4.1, SVG Export Plug-In . SVG Version: 6.00 Build 0)  -->
<svg version="1.1" id="Layer_1" xmlns="http://www.w3.org/2000/svg" xmlns:xlink="http://www.w3.org/1999/xlink" x="0px" y="0px"
	 viewBox="0 0 595.3 533.7" style="enable-background:new 0 0 595.3 533.7;" xml:space="preserve">
<style type="text/css">
	.st0{fill:#E04726;}
	.st1{fill:#F3F5F4;stroke:#F3F5F4;stroke-width:7;stroke-linejoin:round;stroke-miterlimit:10;}
	.st2{fill:#005FA8;}
	.st3{fill:#C43B44;}
	.st4{fill:#00336A;}
	.st5{fill:#771619;}
</style>
<g>
	<path class="st0" d="M899.4,1464.3c-3-15.7-0.3-29.8,8-42.1c7.8-11.5,19.5-19.8,31.2-25.7c-19,3.1-36.7,10.2-52.1,20.4l-1.9,1.6
		c-0.2,0.2-16.7,15.1-4.3,57.8C886.2,1472.2,892.5,1468.3,899.4,1464.3z"/>
	<path class="st0" d="M864.3,1435.1c-11,11.2-20,24.3-26.6,38.8c1.6,0.6,3.1,1.3,4.5,2.2c6.2,3.8,11.1,10.1,14.5,18.8
		c4-3.7,8.4-7.4,13.2-11.1C863.1,1462.5,862.5,1446.6,864.3,1435.1z"/>
	<path class="st0" d="M836,1486.6c-0.9-0.6-1.8-1-2.7-1.3c-4.8,13.9-7.5,28.8-7.5,44.4c0,1.6,0,3.1,0.1,4.7
		c4.5-8.9,11.3-19.1,21.3-29.9C844.6,1495.7,840.9,1489.7,836,1486.6z"/>
	<path class="st0" d="M850.3,1519.2c-8.3,10-13.4,19.2-16.6,26.9c-0.8,1.9-1.5,3.8-2.1,5.8H855c-0.3-2-0.5-4-0.8-6
		C852.9,1536.6,851.8,1527.7,850.3,1519.2z"/>
	<path class="st0" d="M874.3,1495.9c-5.1,4.1-9.7,8.2-13.8,12.2c2.4,11.4,4,23.5,5.7,36.2c0.3,2.5,0.7,5.1,1,7.6h36.4
		c-6.8-10.8-13.3-22.2-19.4-34.1C880.3,1510,877,1502.7,874.3,1495.9z"/>
	<path class="st0" d="M1078.6,1464c-6.8-3.4-23.6-10.9-47.1-14.6c-27.6-4.4-70.2-4.1-117.7,20.8c7.4,16.9,27.3,23.7,55.9,33.3
		c27.4,9.3,63.5,21.5,103.1,48.3h21c1.2-7.3,1.8-14.7,1.8-22.3C1095.6,1505.8,1089.4,1483.4,1078.6,1464z"/>
	<path class="st0" d="M903.1,1476.2c-6.8,4-13.1,8-18.7,12c2.7,7.3,6.2,15.3,10.7,24c7,13.8,14.8,27.1,23,39.6h132
		c-32.1-19.1-61.3-29-84.3-36.8C935.5,1504.8,912.6,1497.1,903.1,1476.2z"/>
	<path class="st0" d="M917.5,1429c-5.8,8.5-8,18.3-6.8,29.1c49.5-25.2,94-25.3,123-20.7c12.9,2.1,23.9,5.1,32.6,8.2
		c-21.2-26.7-52.4-45.2-87.8-49.8C970.3,1397.4,933.3,1405.7,917.5,1429z"/>
</g>
<path class="st1" d="M539.3,366c-4-85.8-126.2-95.8-153-122.9c21.4-20.6,101.4-2.5,101.4-2.5c0.5-0.1,17-73.2,16.4-73.1
	c0,0,0.2-22.8,0-22.7c0,0-28.8-18.3-91.9-18.3c-25.2,0-46.9,4.8-65.1,12.7c16.9-55.6,29.6-97.4,29.6-97.4V19l-113.3,4.4l-48.2,224.3
	L169.9,34.3L56.7,45v22.7c0,0,112,347.6,115,347.6c1.8,0,3.5-0.6,3.5-0.6s83.1-1.2,86.1,0c0.8,0,16.1-48.4,35.2-110.3
	c18.8,26.7,56.9,50,126.4,67.2c2.7,0.7,8.5,2.2,12.8,6.1C410.5,401.4,301.8,390,301.8,390c-0.5,0.4,0,22.7,0,22.7
	c-1.5,1.3,9.1,89.6,9.7,89.5c0,0,227.7,31.5,227.7-113.5C539.1,385.9,539.3,371,539.3,366z"/>
<g>
	<path class="st2" d="M56.7,45l113.2-10.7l45.4,213.4l48.2-224.3L376.8,19c0,0-113.2,373.1-115.5,373.1c-2.9-1.2-86.1,0-86.1,0
		s-1.8,0.6-3.5,0.6C168.8,392.7,56.7,45,56.7,45z"/>
	<path class="st3" d="M504.2,144.7c0.5-0.1-15.9,73.1-16.4,73.1c0,0-102.3-23.1-106.5,12.6c-4.5,38.5,153.4,37.8,158,135.6
		c0,145-227.7,113.5-227.7,113.5c-0.5,0.1-11.2-88.2-9.7-89.5c0,0,142.5,14.9,139-24.7c-1-11.9-13.6-15.2-17.9-16.3
		c-122.6-30.3-147.8-79.7-140.6-133.3c5.6-42.3,51.2-89.3,130.1-89.3C475.3,126.4,504.2,144.7,504.2,144.7z"/>
	<path class="st4" d="M269.5,280.6c-2.3-0.4-4.6-0.6-6.9-0.6c-13.3,0-25.2,6.1-33.1,15.7c-1.7-0.3-3.5-0.5-5.3-0.5
		c-1.6,0-3.3,0.2-4.8,0.4c0.3-2,0.5-4,0.5-6.1c0-23.6-19.1-42.7-42.7-42.7c-8.1,0-15.6,2.3-22.1,6.2c0-0.2,0-0.3,0-0.5
		c0-23.6-19.1-42.7-42.7-42.7c-0.7,0-1.5,0-2.2,0.1c12.5,38.2,25.2,76.9,35.8,108.9c14.4,43.3,24.9,74.1,25.8,74.1
		c1.8,0,3.5-0.6,3.5-0.6s83.1-1.2,86.1,0c0.4,0,3.8-10.3,9.3-27.4c8.2-25.7,21-66.9,34.9-112.1C288.8,254.3,275,265.4,269.5,280.6z"
		/>
	<path class="st5" d="M488.5,291.8c-24.7-14.7-53.5-24.1-75.1-33.2c-3.1,3.8-5.6,8-7.3,12.7c-2.3-0.4-4.6-0.6-6.9-0.6
		c-13.3,0-25.2,6.1-33.1,15.7c-1.7-0.3-3.5-0.5-5.3-0.5c-1.6,0-3.3,0.2-4.8,0.4c0.3-2,0.5-4,0.5-6.1c0-23.6-19.1-42.7-42.7-42.7
		c-8.1,0-15.6,2.3-22.1,6.2c0-0.2,0-0.3,0-0.5c0-10.1-3.5-19.4-9.4-26.7c-6.8,53.3,18.6,102.4,140.6,132.6c0,0,0.1,0,0.1,0
		c4.3,1.1,16.9,4.4,17.9,16.3c3.5,39.5-139,24.7-139,24.7c-1.5,1.3,9.1,89.6,9.7,89.5c0,0,227.7,31.5,227.7-113.5
		C537.6,330.4,515.6,307.9,488.5,291.8z"/>
</g>
</svg>
